<?xml version="1.0" encoding="UTF-8" standalone="no"?>
<!-- Created with Inkscape (http://www.inkscape.org/) -->

<svg
   xmlns:dc="http://purl.org/dc/elements/1.1/"
   xmlns:cc="http://creativecommons.org/ns#"
   xmlns:rdf="http://www.w3.org/1999/02/22-rdf-syntax-ns#"
   xmlns:svg="http://www.w3.org/2000/svg"
   xmlns="http://www.w3.org/2000/svg"
   xmlns:xlink="http://www.w3.org/1999/xlink"
   xmlns:sodipodi="http://sodipodi.sourceforge.net/DTD/sodipodi-0.dtd"
   xmlns:inkscape="http://www.inkscape.org/namespaces/inkscape"
   width="1000"
   height="260"
   viewBox="0 0 937.49991 243.75"
   id="svg192014"
   version="1.1"
   inkscape:version="0.92.4 (unknown)"
   sodipodi:docname="keylime-logo-text.svg"
   inkscape:export-filename="/home/tigert/SparkleShare/doing/keylime-design/logo/keylime-github.png"
   inkscape:export-xdpi="187.5"
   inkscape:export-ydpi="187.5">
  <defs
     id="defs192016">
    <radialGradient
       inkscape:collect="always"
       xlink:href="#linearGradient1313"
       id="radialGradient1474"
       gradientUnits="userSpaceOnUse"
       gradientTransform="matrix(2.0759354,-0.04008159,0.03686616,1.9093987,-615.55514,2887.313)"
       cx="372.36816"
       cy="-1019.7771"
       fx="372.36816"
       fy="-1019.7771"
       r="42.87117" />
    <linearGradient
       id="linearGradient1313"
       inkscape:collect="always">
      <stop
         id="stop1309"
         offset="0"
         style="stop-color:#4cfd00;stop-opacity:1" />
      <stop
         id="stop1311"
         offset="1"
         style="stop-color:#5bd900;stop-opacity:1" />
    </linearGradient>
    <linearGradient
       inkscape:collect="always"
       xlink:href="#linearGradient1235"
       id="linearGradient1480"
       gradientUnits="userSpaceOnUse"
       x1="345.19714"
       y1="1338.5837"
       x2="377.64075"
       y2="1223.4587" />
    <linearGradient
       inkscape:collect="always"
       id="linearGradient1235">
      <stop
         style="stop-color:#ffffff;stop-opacity:0.51968503"
         offset="0"
         id="stop1231" />
      <stop
         style="stop-color:#ffffff;stop-opacity:0.08661418"
         offset="1"
         id="stop1233" />
    </linearGradient>
    <radialGradient
       inkscape:collect="always"
       xlink:href="#linearGradient1322"
       id="radialGradient1482"
       gradientUnits="userSpaceOnUse"
       gradientTransform="matrix(2.7679139,-0.05344213,-0.04897453,-2.5365226,-774.05275,4253.5098)"
       cx="346.04364"
       cy="1304.6088"
       fx="346.04364"
       fy="1304.6088"
       r="29.006128" />
    <linearGradient
       inkscape:collect="always"
       id="linearGradient1322">
      <stop
         style="stop-color:#ffffff;stop-opacity:1;"
         offset="0"
         id="stop1318" />
      <stop
         style="stop-color:#ffffff;stop-opacity:0;"
         offset="1"
         id="stop1320" />
    </linearGradient>
    <linearGradient
       inkscape:collect="always"
       xlink:href="#linearGradient1235"
       id="linearGradient5915"
       gradientUnits="userSpaceOnUse"
       x1="345.19714"
       y1="1338.5837"
       x2="377.64075"
       y2="1223.4587"
       gradientTransform="matrix(3.566227,-0.06885572,0.06885572,3.566227,-900.96824,-1537.2188)" />
  </defs>
  <sodipodi:namedview
     id="base"
     pagecolor="#ffffff"
     bordercolor="#666666"
     borderopacity="0.13333333"
     inkscape:pageopacity="0.0"
     inkscape:pageshadow="2"
     inkscape:zoom="1"
     inkscape:cx="535.896"
     inkscape:cy="-7.172749"
     inkscape:document-units="mm"
     inkscape:current-layer="text3677"
     showgrid="false"
     units="px"
     inkscape:showpageshadow="false"
     borderlayer="true"
     inkscape:window-width="1920"
     inkscape:window-height="1016"
     inkscape:window-x="0"
     inkscape:window-y="27"
     inkscape:window-maximized="1"
     inkscape:snap-perpendicular="true"
     inkscape:snap-tangential="true"
     fit-margin-top="8"
     fit-margin-left="8"
     fit-margin-right="8"
     fit-margin-bottom="8">
    <inkscape:grid
       type="xygrid"
       id="grid2184"
       spacingx="7.4999998"
       spacingy="7.4999998"
       originx="1.9721945"
       originy="1.9719474" />
  </sodipodi:namedview>
  <metadata
     id="metadata192019">
    <rdf:RDF>
      <cc:Work
         rdf:about="">
        <dc:format>image/svg+xml</dc:format>
        <dc:type
           rdf:resource="http://purl.org/dc/dcmitype/StillImage" />
        <dc:title></dc:title>
      </cc:Work>
    </rdf:RDF>
  </metadata>
  <g
     inkscape:label="Layer 1"
     inkscape:groupmode="layer"
     id="layer1"
     transform="translate(1.9721945,-810.5841)">
    <g
       id="g6271">
      <g
         id="g6159">
        <path
           transform="rotate(-1.1061144)"
           style="color:#000000;overflow:visible;opacity:1;vector-effect:none;fill:#41a500;fill-opacity:1;fill-rule:nonzero;stroke:none;stroke-width:3.42515516;stroke-linecap:butt;stroke-linejoin:round;stroke-miterlimit:4;stroke-dasharray:none;stroke-dashoffset:0;stroke-opacity:1;paint-order:markers stroke fill"
           d="M 216.43649,934.50488 A 114.45728,114.45728 0 0 1 101.9792,1048.9622 114.45728,114.45728 0 0 1 -12.478081,934.50488 114.45728,114.45728 0 0 1 101.9792,820.0476 114.45728,114.45728 0 0 1 216.43649,934.50488 Z"
           id="circle1456"
           inkscape:connector-curvature="0" />
        <path
           transform="rotate(-1.1061144)"
           style="color:#000000;overflow:visible;opacity:1;vector-effect:none;fill:#ffffff;fill-opacity:1;fill-rule:nonzero;stroke:none;stroke-width:2.99021482;stroke-linecap:butt;stroke-linejoin:round;stroke-miterlimit:4;stroke-dasharray:none;stroke-dashoffset:0;stroke-opacity:1;paint-order:markers stroke fill"
           d="M 201.90222,934.50488 A 99.923019,99.923019 0 0 1 101.9792,1034.4279 99.923019,99.923019 0 0 1 2.0561829,934.50488 99.923019,99.923019 0 0 1 101.9792,834.58186 a 99.923019,99.923019 0 0 1 99.92302,99.92302 z"
           id="circle1458"
           inkscape:connector-curvature="0" />
        <path
           style="fill:url(#radialGradient1474);fill-opacity:1;fill-rule:evenodd;stroke:#61bd00;stroke-width:2.35425544;stroke-miterlimit:4;stroke-dasharray:none;stroke-opacity:1"
           d="m 120.98779,843.31616 c -1.10837,0.0221 -2.12896,0.0412 -3.01609,0.0861 -7.09788,0.31138 -22.140416,1.34978 -23.314889,10.68359 -1.174473,9.33384 9.735169,32.38122 14.678669,39.9001 4.94346,7.51913 15.08099,7.69859 19.73759,-0.38094 4.65663,-8.07943 14.8083,-32.41322 13.1926,-41.48047 -1.41371,-7.93397 -13.5183,-8.89979 -21.27792,-8.80866 z M 74.461542,858.492 c -6.910437,0.0559 -14.900497,8.14483 -18.799778,12.40153 -4.799071,5.23875 -14.703218,16.61178 -8.933725,24.04221 5.769494,7.43061 29.784837,16.0106 38.59714,17.8316 8.812229,1.8213 16.106661,-5.21924 13.686347,-14.225 -2.420386,-9.00608 -12.450629,-33.39261 -20.004725,-38.66173 -1.416398,-0.98802 -2.950574,-1.40168 -4.545259,-1.38861 z m 87.496078,-1.12972 c -1.60404,0.11668 -3.13648,0.64837 -4.52969,1.73024 -7.43047,5.76968 -16.0106,29.78097 -17.83168,38.59313 -1.82111,8.81219 5.21943,16.1067 14.22526,13.68638 9.00579,-2.4206 33.39254,-12.44683 38.66162,-20.0006 5.2692,-7.5541 -5.77383,-18.54596 -11.0127,-23.34504 -4.25662,-3.89928 -12.56215,-11.16993 -19.51281,-10.66411 z M 41.630988,909.92413 c -0.678331,0.011 -1.303882,0.0696 -1.870655,0.16894 -9.067366,1.61574 -9.032879,17.20009 -8.721907,24.29805 0.311377,7.09803 1.353901,22.14042 10.687705,23.31474 9.33373,1.17466 32.376996,-9.73881 39.895943,-14.68257 7.518909,-4.94346 7.698485,-15.07687 -0.381014,-19.73357 -7.574524,-4.3655 -29.435771,-13.56544 -39.610109,-13.36655 z m 154.742302,-2.98771 c -10.2502,0.25028 -30.94713,10.12903 -37.99614,14.76354 -7.51891,4.9435 -7.69841,15.08107 0.38109,19.73744 8.07949,4.65675 32.41328,14.8083 41.48065,13.19282 9.06737,-1.61577 9.03295,-17.19592 8.72202,-24.29396 -0.31101,-7.09796 -1.34997,-22.14462 -10.68373,-23.31894 -0.58338,-0.0747 -1.22048,-0.0957 -1.90389,-0.0824 z m -44.91295,44.74165 c -7.26667,0.25101 -12.58636,6.62375 -10.46856,14.50373 2.42035,9.00575 12.44655,33.39265 20.00064,38.6618 7.5541,5.269 18.54597,-5.77391 23.34504,-11.01266 4.79907,-5.23897 14.70322,-16.61208 8.93372,-24.04269 -5.76949,-7.43043 -29.78075,-16.01045 -38.59305,-17.83145 -1.10156,-0.22783 -2.17968,-0.31432 -3.21779,-0.27899 z m -62.010445,1.19729 c -1.050769,0.0221 -2.146625,0.16636 -3.272331,0.46883 -9.00579,2.42031 -33.392541,12.44651 -38.66166,20.00061 -5.269118,7.55405 5.773947,18.55012 11.012848,23.34912 5.238864,4.79908 16.61193,14.69918 24.042396,8.92978 7.430465,-5.76945 16.010597,-29.78097 17.831672,-38.59312 1.59347,-7.71075 -3.596992,-14.2599 -10.952925,-14.15522 z"
           id="path1460"
           inkscape:connector-curvature="0" />
        <path
           style="fill:#0e232e;fill-opacity:1;fill-rule:evenodd;stroke:none;stroke-width:0.00272484"
           d="m 119.5308,908.11634 c -0.40807,0.007 -0.81481,0.0147 -1.21978,0.0567 -0.39368,0.0368 -0.78577,0.0648 -1.17407,0.11115 -0.37273,0.0434 -0.74109,0.0975 -1.1083,0.16011 -0.0294,5.2e-4 -0.053,10e-4 -0.0788,0.002 -0.3907,0.0659 -0.77778,0.13949 -1.16178,0.22451 -1.95774,0.42876 -3.82475,1.0945 -5.57162,1.9633 -0.33935,0.1671 -0.67399,0.3445 -1.00381,0.52835 -0.0184,3.3e-4 -0.0331,0.0294 -0.0523,0.0294 -0.30439,0.17188 -0.60413,0.34929 -0.90031,0.53243 -0.0431,0.0294 -0.0872,0.0515 -0.13029,0.0773 -0.30291,0.19139 -0.59942,0.38833 -0.89309,0.59124 -0.0294,0.0294 -0.0593,0.0368 -0.088,0.06 -0.27126,0.18771 -0.53681,0.38547 -0.7999,0.58528 -0.0556,0.0423 -0.11263,0.0824 -0.16783,0.12514 -0.23115,0.17888 -0.45665,0.36401 -0.68091,0.55062 -0.0828,0.0681 -0.16747,0.13581 -0.24955,0.20427 -0.17961,0.15311 -0.35333,0.31395 -0.52831,0.47262 -0.12072,0.11042 -0.24402,0.21532 -0.3629,0.32758 -0.001,0.003 -0.007,1.4e-4 -0.007,1.8e-4 -0.28157,0.26574 -0.55809,0.5388 -0.82784,0.819 -0.27126,0.2823 -0.53497,0.57244 -0.79246,0.86726 -0.1141,0.12955 -0.22231,0.26463 -0.3331,0.39772 -0.14428,0.17188 -0.29039,0.34303 -0.43007,0.5194 -0.0629,0.0788 -0.1222,0.16305 -0.18403,0.24182 -0.18771,0.24476 -0.37303,0.4879 -0.55157,0.73891 -0.22489,0.31543 -0.440973,0.63704 -0.650656,0.96369 -0.03717,0.0589 -0.0714,0.11778 -0.108209,0.1763 -0.178508,0.2834 -0.353704,0.5703 -0.520802,0.86181 -1.547427,2.6972 -2.590981,5.71608 -3.003501,8.92857 -5.89e-4,0 -0.001,3e-5 -0.0014,3e-5 -0.04969,0.38871 -0.09017,0.78032 -0.121459,1.1744 -0.02944,0.39037 -0.05263,0.78242 -0.06441,1.1775 -0.01104,0.40629 -0.0184,0.81304 -0.0074,1.22103 0.186605,9.66748 6.007037,17.90153 14.267217,21.63765 0.011,0.59596 -0.007,1.18691 -0.011,1.78066 -0.23592,9.00804 -3.25819,23.07617 -6.2303,34.96798 -2.04618,7.18979 -4.223644,14.36665 -5.907472,21.64795 -0.11005,0.5601 -0.165627,1.0064 -0.193967,1.4051 -0.164522,1.6316 0.237397,2.2383 2.749459,2.5976 0.72177,0.1771 1.47408,0.3449 2.25267,0.5 4.68839,0.9418 10.10238,1.4113 15.59557,1.4694 0.0799,-1e-4 0.159,0 0.23924,0 0.68573,0.015 1.36995,0 2.0563,-0.01 0.36585,-0.01 0.73034,-0.011 1.09674,-0.022 0.36732,-0.01 0.73233,-0.011 1.09884,-0.022 0.68624,-0.011 1.36991,-0.055 2.05498,-0.073 0.0799,0 0.159,0 0.23924,0 5.48686,-0.2694 10.87865,-0.9482 15.52722,-2.0703 0.77204,-0.1836 1.51732,-0.3805 2.23168,-0.5866 2.49643,-0.4561 2.8745,-1.0778 2.64715,-2.7018 -0.0438,-0.3973 -0.1163,-0.8412 -0.24807,-1.3966 -1.96366,-7.2109 -4.41651,-14.29833 -6.7387,-21.40373 -3.42887,-11.76829 -6.99181,-25.70926 -7.57548,-34.70147 -0.0258,-0.59319 -0.0674,-1.18297 -0.0788,-1.77893 8.10979,-4.05221 13.60802,-12.50481 13.42134,-22.17229 -0.007,-0.40939 -0.0294,-0.81547 -0.0559,-1.21978 -0.0258,-0.39441 -0.0641,-0.78511 -0.11005,-1.17411 -0.0464,-0.39239 -0.10196,-0.78245 -0.16673,-1.16888 -5.9e-4,0 -0.001,0 -0.001,0 -0.53619,-3.19412 -1.6955,-6.17053 -3.34591,-8.80597 -0.17814,-0.28451 -0.36401,-0.56475 -0.55363,-0.84101 -0.039,-0.0574 -0.0754,-0.11484 -0.11483,-0.17225 -0.22231,-0.31801 -0.45062,-0.63122 -0.68739,-0.93785 -0.18808,-0.24292 -0.38263,-0.48076 -0.57965,-0.71705 -0.0651,-0.0788 -0.12698,-0.1579 -0.19323,-0.23446 -0.14612,-0.17151 -0.29887,-0.33566 -0.44977,-0.50247 -0.11594,-0.12771 -0.22967,-0.25838 -0.34818,-0.38466 -0.26795,-0.28414 -0.54252,-0.56379 -0.8253,-0.83608 -0.28267,-0.27199 -0.57288,-0.53552 -0.86711,-0.79231 -0.12256,-0.10564 -0.25028,-0.20833 -0.37516,-0.31322 -0.18108,-0.15164 -0.3607,-0.30549 -0.54612,-0.45187 -0.0843,-0.0677 -0.17189,-0.12955 -0.25728,-0.19433 -0.23114,-0.17851 -0.4639,-0.35444 -0.70166,-0.5239 -0.0567,-0.0408 -0.11557,-0.078 -0.17262,-0.11851 -0.27052,-0.18881 -0.5434,-0.37527 -0.82191,-0.55396 -0.0294,-0.0294 -0.0604,-0.0368 -0.0902,-0.0534 -0.30107,-0.19066 -0.60519,-0.3777 -0.91525,-0.55603 -0.0438,-0.0294 -0.0891,-0.0482 -0.13323,-0.0721 -0.30291,-0.17151 -0.60929,-0.33898 -0.92015,-0.49754 -0.0184,3.3e-4 -0.0368,-0.0294 -0.053,-0.0294 -0.33677,-0.17078 -0.67803,-0.33383 -1.02346,-0.48919 -1.77912,-0.80075 -3.67042,-1.39391 -5.64328,-1.7468 -0.38694,-0.0703 -0.77661,-0.12919 -1.16958,-0.17961 -0.0294,5.1e-4 -0.053,0.001 -0.0791,0.002 -0.36928,-0.0453 -0.73951,-0.0883 -1.11364,-0.11667 -0.38981,-0.0331 -0.78286,-0.0515 -1.17749,-0.0659 -0.40589,-0.0221 -0.81282,-0.0147 -1.22313,-0.007 z"
           id="path1462"
           inkscape:connector-curvature="0" />
        <path
           transform="matrix(2.7679139,-0.05344213,-0.05344213,-2.7679139,-768.22423,4555.3847)"
           style="fill:none;fill-opacity:1;fill-rule:evenodd;stroke:url(#linearGradient1480);stroke-width:0.85039377;stroke-miterlimit:4;stroke-dasharray:none;stroke-opacity:1"
           d="m 362.4375,1276.0879 c -0.63025,-0.097 -1.13471,-0.011 -1.62891,0.3476 -1.01411,0.7369 -2.64485,3.4131 -3.92578,6.2422 -1.28093,2.8292 -2.33991,5.8659 -2.72265,7.4082 -0.30187,1.2165 -0.0371,2.2221 0.54296,2.959 0.58006,0.737 1.49222,1.2061 2.58008,1.2227 0.30944,0 0.63538,-0.029 0.97266,-0.1055 1.48343,-0.3365 4.42784,-1.3284 7.18555,-2.5547 2.7577,-1.2263 5.3806,-2.8006 6.16601,-3.8535 0.38354,-0.5141 0.49191,-1.0392 0.42383,-1.6758 -0.0681,-0.6366 -0.34474,-1.3661 -0.75195,-2.0976 -0.81442,-1.4631 -2.12693,-2.9072 -3.00196,-3.8262 -1.30223,-1.3676 -3.94904,-3.7758 -5.83984,-4.0664 z m -32.57227,0.1836 c -1.90968,0.2042 -4.54546,2.4414 -5.92382,3.7539 -0.91185,0.8682 -2.31346,2.2948 -3.20899,3.75 -0.44776,0.7276 -0.76055,1.4576 -0.85742,2.0879 -0.0969,0.6302 -0.0117,1.1344 0.34766,1.6289 0.73685,1.0141 3.41446,2.6443 6.24414,3.9258 2.82967,1.2814 5.86599,2.3438 7.4082,2.7265 0.34557,0.086 0.67517,0.1231 0.99219,0.1231 2.17842,-0.013 3.61756,-1.8688 3.08398,-4.2207 -0.33651,-1.4833 -1.3279,-4.4293 -2.55469,-7.1875 -1.22678,-2.7583 -2.80263,-5.3807 -3.85546,-6.166 -0.51354,-0.3831 -1.03801,-0.4901 -1.67579,-0.4219 z m -12.15039,18.1621 c -0.63477,0.092 -1.08235,0.3885 -1.48437,0.8867 -0.40202,0.4982 -0.72379,1.2086 -0.95313,2.0137 -0.45866,1.6102 -0.55093,3.5596 -0.58203,4.8281 -0.0308,1.2588 -0.0129,3.2592 0.38281,4.9219 0.19785,0.8313 0.49201,1.5697 0.86915,2.084 0.37652,0.5134 0.79439,0.8082 1.39648,0.9043 0.15514,0.024 0.33985,0.039 0.55273,0.039 1.5876,4e-4 4.46505,-0.8296 7.18164,-1.8867 2.7166,-1.0571 5.34496,-2.3348 6.6211,-3.1035 1.22715,-0.7392 1.74393,-1.805 1.73047,-2.877 -0.0135,-1.0719 -0.57737,-2.1651 -1.74414,-2.9003 -1.28686,-0.811 -4.06954,-2.1928 -6.88672,-3.2754 -2.81718,-1.0827 -5.78408,-1.824 -7.08399,-1.6348 z m 57.02735,0 c -1.23815,-0.196 -4.28298,0.5459 -7.18946,1.6407 -2.90648,1.0947 -5.80287,2.4906 -7.16406,3.3105 -1.22702,0.7391 -1.74394,1.8044 -1.73047,2.877 0.0135,1.0725 0.57749,2.1671 1.74414,2.9023 1.20634,0.7602 3.72935,2.0254 6.35938,3.0703 2.63003,1.045 5.43491,1.8668 7.04492,1.875 a 0.79396897,0.79396897 0 0 1 0.0156,0 c 0.20772,-7e-4 0.39682,-0.012 0.55273,-0.035 0.63468,-0.092 1.08252,-0.3884 1.48438,-0.8867 0.40185,-0.4984 0.724,-1.2103 0.95312,-2.0157 0.45824,-1.6107 0.54902,-3.5594 0.58008,-4.8281 0.0308,-1.2588 0.0129,-3.2578 -0.38281,-4.9199 -0.19784,-0.8311 -0.49203,-1.5699 -0.86915,-2.084 -0.37711,-0.5141 -0.79468,-0.8107 -1.39843,-0.9063 z m -40.90821,15.9122 c -1.48335,0.3365 -4.4288,1.3279 -7.1875,2.5546 -2.75869,1.2268 -5.38264,2.8027 -6.16796,3.8555 -0.38352,0.5141 -0.49205,1.0394 -0.42383,1.6758 0.0682,0.6364 0.34452,1.3664 0.75195,2.0976 0.81487,1.4626 2.12871,2.9052 3.00391,3.8243 0.70536,0.7407 1.77533,1.8045 2.9375,2.6582 1.16216,0.8536 2.41468,1.4539 3.35547,1.4433 0.43456,0 0.80228,-0.1128 1.17382,-0.3828 1.01419,-0.7369 2.64437,-3.413 3.92578,-6.2422 1.28142,-2.8292 2.34191,-5.8659 2.72461,-7.4082 0.34504,-1.3904 -0.043,-2.5074 -0.81054,-3.2558 -0.76752,-0.7485 -1.93828,-1.1255 -3.28321,-0.8203 z m 22.51172,0.017 c -1.63914,0.4495 -2.66666,2.0823 -2.20898,4.0996 0.33651,1.4833 1.3279,4.4293 2.55469,7.1875 1.22678,2.7583 2.80261,5.3806 3.85547,6.1661 0.38566,0.2877 0.77469,0.4138 1.21679,0.4375 0.95896,0.051 2.20526,-0.4815 3.37695,-1.2696 1.1717,-0.788 2.25903,-1.7888 3.00586,-2.5 0.91175,-0.8681 2.31198,-2.2948 3.20704,-3.75 0.44752,-0.7276 0.76069,-1.4576 0.85742,-2.0879 0.0967,-0.6302 0.0117,-1.1343 -0.34766,-1.6289 -0.73685,-1.014 -3.413,-2.6448 -6.24219,-3.9257 -2.82918,-1.281 -5.86585,-2.3419 -7.4082,-2.7247 v 0 c -0.69514,-0.1725 -1.32063,-0.1557 -1.86719,-0.01 z m -10.3125,4.5039 c -1.07248,0.014 -2.16729,0.5777 -2.90234,1.7442 -0.81082,1.2866 -2.19322,4.069 -3.27539,6.8867 -1.08218,2.8177 -1.82196,5.7859 -1.63281,7.0859 0.0923,0.6348 0.38854,1.0826 0.88672,1.4844 0.49817,0.4018 1.20857,0.724 2.01367,0.9531 1.61019,0.4582 3.55936,0.549 4.82812,0.5801 a 0.79396897,0.79396897 0 0 1 0.006,0 c 0.30126,0.01 0.66363,0.01 1.06445,0.01 1.36306,-0.011 3.09606,-0.1324 4.45508,-0.5586 0.68039,-0.2134 1.25797,-0.5014 1.66016,-0.8477 0.40219,-0.3462 0.64096,-0.7256 0.72461,-1.2539 0.19604,-1.2381 -0.54585,-4.283 -1.64063,-7.1894 -1.09477,-2.9065 -2.49061,-5.8029 -3.31054,-7.1641 -0.73926,-1.2273 -1.80448,-1.744 -2.87696,-1.7305 z"
           id="path1468"
           inkscape:connector-curvature="0" />
        <path
           inkscape:connector-curvature="0"
           id="path1470"
           d="m 124.46417,852.15617 c -1.10178,-0.0703 -4.19417,36.07841 -5.29801,36.09196 -1.10369,0.0221 -5.39271,-35.91433 -6.49173,-35.81558 -1.09899,0.099 1.04558,36.21867 -0.0438,36.39199 -1.08923,0.17299 -9.87187,-35.16551 -10.94395,-34.90614 -0.6646,0.15974 1.68998,14.01344 3.34418,24.68153 2.61085,5.75411 5.37482,10.91991 7.10006,13.54398 1.90039,2.89062 4.58968,4.16226 7.15788,4.14507 2.56816,-0.0147 5.07773,-1.23885 6.87606,-4.35928 1.88111,-3.26353 4.97946,-9.98596 7.64909,-17.04933 1.51176,-10.03503 3.29294,-21.32436 2.68874,-21.45171 -1.07701,-0.22819 -9.87728,35.72791 -10.97004,35.58871 -1.09273,-0.1395 0.0331,-36.79193 -1.06862,-36.8612 z m 33.21076,11.5352 c -2.44129,3.11988 -5.64792,8.86339 -8.1781,14.86101 -1.82815,4.33384 -3.39736,8.76677 -4.60794,12.58997 3.19537,-7.22884 10.60935,-22.05599 12.78604,-27.45098 z m -87.900349,5.40037 c -0.866004,0.68183 21.108752,30.065 20.29527,30.81168 -0.813555,0.74587 -27.794747,-23.14919 -28.544039,-22.34171 -0.749256,0.80778 24.89537,26.27735 24.203274,27.13441 -0.692097,0.85703 -31.38173,-19.23721 -32.007466,-18.328 -0.51587,0.74985 19.140489,15.57545 25.819343,21.34347 2.576517,0.79758 4.901392,1.45073 6.463099,1.77334 3.389188,0.70049 6.18746,-0.29408 7.990061,-2.12131 1.802637,-1.82715 2.715753,-4.47473 1.781216,-7.95167 -0.263897,-0.98227 -0.657572,-2.23514 -1.12876,-3.63291 -3.894532,-3.30929 -24.074269,-27.31517 -24.871998,-26.6873 z m 98.260339,-0.94801 c -0.8423,-0.6275 -21.57085,25.03965 -24.34303,26.96831 -0.33898,1.23233 -0.63265,2.37795 -0.8133,3.2526 -1.05058,5.08329 1.52104,8.87804 5.48804,9.88383 v 0 c 1.3231,0.33567 2.84701,0.36217 4.5852,-0.1163 1.67886,-0.45135 4.16384,-1.29542 6.91963,-2.31167 6.96985,-6.06953 25.23012,-20.20896 24.70719,-20.92376 -0.65073,-0.88956 -30.71143,19.82022 -31.43308,18.98495 -0.72165,-0.83531 24.73195,-27.08878 23.96039,-27.87767 -0.77145,-0.78839 -27.71543,23.89451 -28.54547,23.16788 -0.82997,-0.72658 20.35861,-30.37744 19.47428,-31.03571 z m -84.518857,3.02301 c 2.483472,5.10368 5.38572,10.93717 7.903825,16.1 -1.077894,-2.63018 -2.236688,-5.33633 -3.513187,-8.01583 -1.37293,-2.88174 -2.889624,-5.59422 -4.390638,-8.08417 z m -42.286148,47.60333 c -0.273835,0.0331 -0.423818,0.0688 -0.435412,0.13839 -0.18587,1.08876 35.719146,8.28116 35.619034,9.37959 -0.100111,1.09818 -36.67525,1.20267 -36.703591,2.30246 -0.02944,1.10039 36.059195,2.66059 36.110834,3.76053 0.05153,1.1002 -36.07539,6.80208 -35.94657,7.89775 0.128821,1.09541 36.740692,-2.1955 36.949565,-1.11492 0.208689,1.08054 -34.471798,11.67962 -34.181879,12.74309 0.115202,0.42253 5.784106,-0.71363 12.540289,-2.15682 1.945186,-0.64065 3.942895,-1.36565 5.912484,-2.1665 7.67331,-3.12036 15.296454,-7.09811 18.688697,-9.32866 2.891869,-1.90131 4.162405,-4.58736 4.145106,-7.15383 -0.0184,-2.5665 -1.243521,-5.07776 -4.363217,-6.87606 -2.241289,-1.29162 -6.173069,-3.17696 -10.660359,-5.09145 -9.741575,-0.8627 -24.886352,-2.59445 -27.674981,-2.3332 z m 155.646395,-1.95876 c -5.14181,0.29591 -21.16322,2.73864 -29.54652,3.67329 -3.01075,1.5426 -5.52797,2.97262 -7.1139,4.01503 -2.89131,1.90106 -4.1624,4.58571 -4.1451,7.15384 0.0184,2.56842 1.24414,5.08218 4.36336,6.87992 3.69177,2.12782 11.77686,5.84686 19.81555,8.69901 6.57966,2.3343 13.4375,3.90893 17.28168,4.13624 0.0294,-0.0294 0.0913,-0.0294 0.0964,-0.0434 0.26464,-1.0684 -34.82977,-10.82083 -34.63753,-11.90498 0.19212,-1.08419 37.00665,1.82542 37.11092,0.72743 0.10416,-1.09792 -36.43668,-5.63181 -36.41566,-6.73561 0.0221,-1.10414 36.61596,-3.71132 36.55777,-4.81085 -0.0585,-1.0995 -36.89767,-0.58952 -37.03198,-1.68206 -0.13434,-1.09255 35.4982,-8.92578 35.2812,-10.00592 -0.0258,-0.13508 -0.61241,-0.1601 -1.61626,-0.10158 z M 89.50238,956.22476 c -0.783485,0.0147 -1.598071,0.1222 -2.455242,0.3515 -4.114741,1.10586 -12.459021,4.20013 -20.160893,7.86871 -1.106014,0.52669 -2.192742,1.07822 -3.265889,1.6408 -6.411607,4.54773 -12.126481,8.66225 -11.867331,9.07153 0.590991,0.9328 32.439971,-17.50171 33.097175,-16.61591 0.657131,0.88559 -26.762933,25.26641 -26.047061,26.10488 0.715873,0.83818 28.926121,-22.07402 29.697239,-21.28788 0.771119,0.78591 -22.416499,28.64006 -21.591313,29.36926 0.82526,0.72894 25.705944,-25.90609 26.586928,-25.24333 0.88102,0.66276 -18.114085,31.89579 -17.18691,32.49231 0.655548,0.42207 11.10096,-14.21992 17.601307,-22.79406 1.532262,-4.42832 2.718034,-8.42992 3.214213,-10.83102 1.225081,-5.92787 -2.280413,-10.19996 -7.622223,-10.12675 z m 62.07133,-1.19847 c -2.68355,0.0935 -4.84317,1.27223 -6.19538,3.06026 -1.35232,1.78798 -1.97198,4.18345 -1.15441,7.22597 0.77296,2.87582 2.54659,7.85145 4.77732,13.19539 6.70708,8.50487 15.78255,20.45402 16.37214,20.05335 0.91315,-0.62044 -18.80773,-30.95946 -17.94669,-31.64784 0.86107,-0.68812 26.07639,25.28014 26.88686,24.53541 0.8105,-0.74498 -22.94088,-28.32283 -22.18938,-29.12811 0.75154,-0.8059 29.38936,21.38807 30.07866,20.52693 0.68934,-0.86118 -26.69352,-24.6272 -26.06649,-25.53285 0.62706,-0.90509 32.31715,16.69879 32.88252,15.75171 0.30034,-0.50281 -8.16754,-6.19177 -16.14792,-11.58857 -7.35645,-3.03449 -15.05479,-5.45101 -18.86765,-6.23913 -0.85168,-0.17483 -1.6687,-0.23924 -2.42962,-0.21348 z"
           style="opacity:0.98400005;fill:url(#radialGradient1482);fill-opacity:1;fill-rule:evenodd;stroke:none;stroke-width:2.35425544;stroke-miterlimit:4;stroke-dasharray:none;stroke-opacity:1" />
        <path
           style="color:#000000;overflow:visible;opacity:1;vector-effect:none;fill:none;fill-opacity:1;fill-rule:nonzero;stroke:url(#linearGradient5915);stroke-width:2.35425544;stroke-linecap:butt;stroke-linejoin:miter;stroke-miterlimit:4;stroke-dasharray:none;stroke-dashoffset:0;stroke-opacity:1;paint-order:markers stroke fill"
           d="M 230.90114,930.22071 A 110.92184,110.92184 0 0 1 122.14122,1043.2631 110.92184,110.92184 0 0 1 9.0988013,934.50321 110.92184,110.92184 0 0 1 117.85872,821.46079 110.92184,110.92184 0 0 1 230.90114,930.22071 Z"
           id="circle5903"
           inkscape:connector-curvature="0" />
        <path
           transform="rotate(-1.1061135)"
           style="color:#000000;overflow:visible;opacity:1;vector-effect:none;fill:none;fill-opacity:1;fill-rule:nonzero;stroke:#327e00;stroke-width:2.35425544;stroke-linecap:butt;stroke-linejoin:miter;stroke-miterlimit:4;stroke-dasharray:none;stroke-dashoffset:0;stroke-opacity:1;paint-order:markers stroke fill"
           d="M 215.2738,934.5047 A 113.29462,113.29462 0 0 1 101.97918,1047.7993 113.29462,113.29462 0 0 1 -11.315437,934.5047 113.29462,113.29462 0 0 1 101.97918,821.21008 113.29462,113.29462 0 0 1 215.2738,934.5047 Z"
           id="circle5917"
           inkscape:connector-curvature="0" />
      </g>
      <g
         id="g5991"
         transform="matrix(3.6825135,0,0,3.6825135,-934.07762,-1617.4291)">
        <g
           aria-label="Keylime.dev"
           style="font-style:normal;font-variant:normal;font-weight:900;font-stretch:normal;font-size:35.61986542px;line-height:20.87101364px;font-family:'Source Sans Pro';-inkscape-font-specification:'Source Sans Pro Heavy';letter-spacing:0px;word-spacing:0px;fill:#364e59;fill-opacity:1;stroke:none;stroke-width:0.83484054px;stroke-linecap:butt;stroke-linejoin:miter;stroke-opacity:1"
           id="text3677"
           transform="matrix(1.1093895,0,0,1.1093895,228.4188,-79.81899)">
          <path
             inkscape:connector-curvature="0"
             d="m 98.715708,698.58076 -3.348268,3.49074 v 6.30472 h -5.734798 v -24.93391 h 5.734798 v 11.6477 l 11.04216,-11.6477 h 6.41157 l -10.32976,11.1134 10.9353,13.82051 h -6.73215 z"
             style="font-style:normal;font-variant:normal;font-weight:bold;font-stretch:normal;font-family:Montserrat;-inkscape-font-specification:'Montserrat Bold';letter-spacing:0px;fill:#364e59;stroke-width:0.83484054px"
             id="path4683" />
          <path
             inkscape:connector-curvature="0"
             d="m 133.61427,698.86572 q 0,0.10686 -0.10686,1.49603 h -14.49728 q 0.39181,1.78099 1.85223,2.81397 1.46041,1.03298 3.63323,1.03298 1.49603,0 2.63587,-0.42744 1.17545,-0.46306 2.17281,-1.4248 l 2.95645,3.20579 q -2.70711,3.09893 -7.90761,3.09893 -3.24141,0 -5.7348,-1.2467 -2.49339,-1.28231 -3.84695,-3.52636 -1.35355,-2.24405 -1.35355,-5.09364 0,-2.81397 1.31793,-5.05802 1.35356,-2.27968 3.66885,-3.52637 2.35091,-1.28232 5.23612,-1.28232 2.81397,0 5.09364,1.21108 2.27967,1.21108 3.56199,3.49075 1.31793,2.24405 1.31793,5.23612 z m -9.93794,-5.7348 q -1.88785,0 -3.17017,1.06859 -1.28231,1.0686 -1.56727,2.92083 h 9.43926 q -0.28496,-1.81661 -1.56727,-2.88521 -1.28232,-1.10421 -3.13455,-1.10421 z"
             style="font-style:normal;font-variant:normal;font-weight:bold;font-stretch:normal;font-family:Montserrat;-inkscape-font-specification:'Montserrat Bold';letter-spacing:0px;fill:#364e59;stroke-width:0.83484054px"
             id="path4685" />
          <path
             inkscape:connector-curvature="0"
             d="m 155.98688,689.21273 -8.65562,20.33895 q -1.31794,3.31264 -3.27703,4.6662 -1.92347,1.35355 -4.6662,1.35355 -1.49604,0 -2.95645,-0.46305 -1.46042,-0.46306 -2.38653,-1.28232 l 2.03033,-3.9538 q 0.64116,0.56991 1.46041,0.89049 0.85488,0.32058 1.67414,0.32058 1.13983,0 1.85223,-0.56992 0.7124,-0.5343 1.28232,-1.81661 l 0.0712,-0.1781 -8.29942,-19.30597 h 5.73479 l 5.3786,13.00125 5.41422,-13.00125 z"
             style="font-style:normal;font-variant:normal;font-weight:bold;font-stretch:normal;font-family:Montserrat;-inkscape-font-specification:'Montserrat Bold';letter-spacing:0px;fill:#364e59;stroke-width:0.83484054px"
             id="path4687" />
          <path
             inkscape:connector-curvature="0"
             d="m 158.25431,681.94628 h 5.5567 v 26.42994 h -5.5567 z"
             style="font-style:normal;font-variant:normal;font-weight:bold;font-stretch:normal;font-family:Montserrat;-inkscape-font-specification:'Montserrat Bold';letter-spacing:0px;fill:#364e59;stroke-width:0.83484054px"
             id="path4689" />
          <path
             inkscape:connector-curvature="0"
             d="m 168.9681,689.21273 h 5.5567 v 19.16349 h -5.5567 z m 2.77835,-2.67149 q -1.53165,0 -2.49339,-0.89049 -0.96173,-0.8905 -0.96173,-2.20844 0,-1.31793 0.96173,-2.20843 0.96174,-0.89049 2.49339,-0.89049 1.53166,0 2.49339,0.85487 0.96174,0.85488 0.96174,2.1372 0,1.38917 -0.96174,2.31529 -0.96173,0.89049 -2.49339,0.89049 z"
             style="font-style:normal;font-variant:normal;font-weight:bold;font-stretch:normal;font-family:Montserrat;-inkscape-font-specification:'Montserrat Bold';letter-spacing:0px;fill:#364e59;stroke-width:0.83484054px"
             id="path4691" />
          <path
             inkscape:connector-curvature="0"
             d="m 204.22397,688.92777 q 3.59761,0 5.69918,2.1372 2.13719,2.10157 2.13719,6.34033 v 10.97092 h -5.55669 v -10.11604 q 0,-2.27967 -0.96174,-3.38389 -0.92612,-1.13983 -2.67149,-1.13983 -1.95909,0 -3.09893,1.28231 -1.13984,1.2467 -1.13984,3.74009 v 9.61736 h -5.55669 v -10.11604 q 0,-4.52372 -3.63323,-4.52372 -1.92347,0 -3.06331,1.28231 -1.13983,1.2467 -1.13983,3.74009 v 9.61736 h -5.5567 v -19.16349 h 5.30736 v 2.20843 q 1.06859,-1.21107 2.60025,-1.85223 1.56727,-0.64116 3.4195,-0.64116 2.03034,0 3.66885,0.81926 1.63851,0.78364 2.63587,2.31529 1.17546,-1.49603 2.95645,-2.31529 1.81661,-0.81926 3.9538,-0.81926 z"
             style="font-style:normal;font-variant:normal;font-weight:bold;font-stretch:normal;font-family:Montserrat;-inkscape-font-specification:'Montserrat Bold';letter-spacing:0px;fill:#364e59;stroke-width:0.83484054px"
             id="path4693" />
          <path
             inkscape:connector-curvature="0"
             d="m 236.02139,698.86572 q 0,0.10686 -0.10686,1.49603 h -14.49729 q 0.39182,1.78099 1.85224,2.81397 1.46041,1.03298 3.63322,1.03298 1.49604,0 2.63587,-0.42744 1.17546,-0.46306 2.17281,-1.4248 l 2.95645,3.20579 q -2.70711,3.09893 -7.90761,3.09893 -3.2414,0 -5.73479,-1.2467 -2.4934,-1.28231 -3.84695,-3.52636 -1.35356,-2.24405 -1.35356,-5.09364 0,-2.81397 1.31794,-5.05802 1.35355,-2.27968 3.66885,-3.52637 2.35091,-1.28232 5.23612,-1.28232 2.81397,0 5.09364,1.21108 2.27967,1.21108 3.56198,3.49075 1.31794,2.24405 1.31794,5.23612 z m -9.93794,-5.7348 q -1.88786,0 -3.17017,1.06859 -1.28232,1.0686 -1.56728,2.92083 h 9.43927 q -0.28496,-1.81661 -1.56728,-2.88521 -1.28231,-1.10421 -3.13454,-1.10421 z"
             style="font-style:normal;font-variant:normal;font-weight:bold;font-stretch:normal;font-family:Montserrat;-inkscape-font-specification:'Montserrat Bold';letter-spacing:0px;fill:#364e59;stroke-width:0.83484054px"
             id="path4695" />
        </g>
      </g>
    </g>
  </g>
</svg>
