<?xml version="1.0" encoding="UTF-8" standalone="no"?><!DOCTYPE svg PUBLIC "-//W3C//DTD SVG 1.1//EN" "http://www.w3.org/Graphics/SVG/1.1/DTD/svg11.dtd"><svg width="100%" height="100%" viewBox="0 0 569 254" version="1.1" xmlns="http://www.w3.org/2000/svg" xmlns:xlink="http://www.w3.org/1999/xlink" xml:space="preserve" xmlns:serif="http://www.serif.com/" style="fill-rule:evenodd;clip-rule:evenodd;stroke-linecap:round;stroke-linejoin:round;stroke-miterlimit:1.5;"><rect id="Attesting-Environments" serif:id="Attesting Environments" x="0" y="0" width="568.13" height="253.305" style="fill:none;"/><g id="System-Architecture" serif:id="System Architecture"><rect x="38.959" y="169.063" width="298.042" height="47.103" style="fill:#ebebeb;stroke:#bdbdbd;stroke-width:1.5px;"/><g transform="matrix(16,0,0,16,265.236,189.423)"></g><text x="111.728px" y="189.423px" style="font-family:'Tahoma-Bold', 'Tahoma';font-weight:700;font-size:16px;">Hardware Platform</text><g transform="matrix(14,0,0,14,289.223,206.516)"></g><text x="86.51px" y="206.516px" style="font-family:'Tahoma';font-size:14px;">motherboard, CPU<tspan x="199.973px 204.212px " y="206.516px 206.516px ">, </tspan>memory<tspan x="257.86px 262.098px " y="206.516px 206.516px ">, </tspan>etc.</text><rect x="38.959" y="139.96" width="298.042" height="29.103" style="fill:#ebebeb;stroke:#bdbdbd;stroke-width:1.5px;"/><g transform="matrix(16,0,0,16,228.927,160.453)"></g><text x="146.677px" y="160.453px" style="font-family:'Tahoma-Bold', 'Tahoma';font-weight:700;font-size:16px;">Microcode</text><rect x="38.959" y="110.857" width="83.564" height="29.103" style="fill:#ebebeb;stroke:#bdbdbd;stroke-width:1.5px;"/><g transform="matrix(16,0,0,16,99.9368,131.35)"></g><text x="61.242px" y="131.35px" style="font-family:'Tahoma-Bold', 'Tahoma';font-weight:700;font-size:16px;">UEFI</text><rect x="122.524" y="110.857" width="105.391" height="29.103" style="fill:#ebebeb;stroke:#bdbdbd;stroke-width:1.5px;"/><g transform="matrix(16,0,0,16,218.7,131.35)"></g><text x="130.536px" y="131.35px" style="font-family:'Tahoma-Bold', 'Tahoma';font-weight:700;font-size:16px;">Bootloader</text><rect x="227.425" y="84.987" width="109.576" height="54.973" style="fill:#ebebeb;stroke:#bdbdbd;stroke-width:1.5px;"/><g transform="matrix(16,0,0,16,308.642,131.35)"></g><text x="256.493px" y="131.35px" style="font-family:'Tahoma-Bold', 'Tahoma';font-weight:700;font-size:16px;">Kernel</text><rect x="227.568" y="21.348" width="109.433" height="63.639" style="fill:#ebebeb;stroke:#bdbdbd;stroke-width:1.5px;"/><g transform="matrix(16,0,0,16,325.21,41.6947)"></g><text x="238.21px" y="41.695px" style="font-family:'Tahoma-Bold', 'Tahoma';font-weight:700;font-size:16px;">User space</text><rect x="284.817" y="94.772" width="39.91" height="15.36" style="fill:#ebebeb;stroke:#000;stroke-width:1.5px;"/><g transform="matrix(14,0,0,14,319.368,107.181)"></g><text x="290.513px" y="107.181px" style="font-family:'Tahoma-Bold', 'Tahoma';font-weight:700;font-size:14px;">IMA</text><rect x="235.249" y="50.501" width="39.91" height="23.773" style="fill:#ebebeb;stroke:#000;stroke-width:1.5px;"/><g transform="matrix(14,0,0,14,271.424,67.3367)"></g><text x="239.322px" y="67.337px" style="font-family:'Tahoma-Bold', 'Tahoma';font-weight:700;font-size:14px;">Files</text><rect x="281.731" y="50.501" width="47.994" height="23.8" style="fill:#ebebeb;stroke:#000;stroke-width:1.5px;"/><g transform="matrix(14,0,0,14,326.641,66.8864)"></g><text x="285.153px" y="66.886px" style="font-family:'Tahoma-Bold', 'Tahoma';font-weight:700;font-size:14px;">Agent</text><rect x="358.083" y="169.125" width="76.587" height="47.041" style="fill:#ebebeb;stroke:#bdbdbd;stroke-width:1.5px;"/><g transform="matrix(16,0,0,16,415.038,197.986)"></g><text x="380.436px" y="197.986px" style="font-family:'Tahoma-Bold', 'Tahoma';font-weight:700;font-size:16px;">TPM</text></g><g id="Attesting-Environments1" serif:id="Attesting Environments"><path d="M447.897,234.555l-420.469,0c-4.24,0 -7.682,-3.442 -7.682,-7.682l-0,-118.636c-0,-4.24 3.442,-7.682 7.682,-7.682l199.997,0l0.49,39.405l219.982,-0c3.859,-0 6.992,3.133 6.992,6.991l-0,80.613c-0,3.859 -3.133,6.991 -6.992,6.991Z" style="fill:#d4746f;fill-opacity:0.39;stroke:#e64138;stroke-width:1.5px;stroke-dasharray:4.5,6,0,0,0,0;"/><path d="M444.889,137.569l-0,79.348c-0,4.767 -3.871,8.638 -8.639,8.638l-401.244,0c-2.903,0 -5.26,-2.357 -5.26,-5.26l-0,-75.075c-0,-2.903 2.357,-5.26 5.26,-5.26l192.419,-0l0,-54.973l111.915,0c5.288,0 9.582,4.294 9.582,9.582l-0,25.04c-0,5.748 2.773,8.378 8.52,8.378l77.865,0c5.288,0 9.582,4.294 9.582,9.582Z" style="fill:#2b58cd;fill-opacity:0.39;stroke:#2a2acd;stroke-width:1.5px;stroke-dasharray:1.5,4.5,0,0,0,0;"/><rect x="388.809" y="31.405" width="15" height="15" style="fill:#d4746f;fill-opacity:0.39;stroke:#e64138;stroke-width:1.5px;stroke-dasharray:3,4.5,0,0,0,0;"/><rect x="388.809" y="55.405" width="15" height="15" style="fill:#2b58cd;fill-opacity:0.39;stroke:#2a2acd;stroke-width:1.5px;stroke-dasharray:0.75,3.75,0,0,0,0;"/><g transform="matrix(12,0,0,12,546.558,42.9882)"></g><text x="411.228px" y="42.988px" style="font-family:'Tahoma';font-size:12px;">U<tspan x="418.533px 424.702px 430.396px 434.308px 437.494px 444.044px 447.399px 450.849px 456.602px 461.393px 464.843px 467.021px 473.148px 479.217px 482.403px 488.572px 494.593px 500.006px 502.184px 505.886px 511.837px 517.965px 527.479px 533.231px 539.359px " y="42.988px 42.988px 42.988px 42.988px 42.988px 42.988px 42.988px 42.988px 42.988px 42.988px 42.988px 42.988px 42.988px 42.988px 42.988px 42.988px 42.988px 42.988px 42.988px 42.988px 42.988px 42.988px 42.988px 42.988px 42.988px ">EFI Attesting Environment</tspan></text><g transform="matrix(12,0,0,12,539.519,66.9882)"></g><text x="411.228px" y="66.988px" style="font-family:'Tahoma';font-size:12px;">I<tspan x="415.141px 423.823px 430.454px 433.64px 440.19px 443.546px 446.995px 452.748px 457.539px 460.989px 463.167px 469.294px 475.363px 478.549px 484.718px 490.739px 496.152px 498.33px 502.032px 507.983px 514.111px 523.625px 529.377px 535.505px " y="66.988px 66.988px 66.988px 66.988px 66.988px 66.988px 66.988px 66.988px 66.988px 66.988px 66.988px 66.988px 66.988px 66.988px 66.988px 66.988px 66.988px 66.988px 66.988px 66.988px 66.988px 66.988px 66.988px 66.988px ">MA Attesting Environment</tspan></text><rect x="388.809" y="78.402" width="15" height="15" style="fill:#a29cc9;fill-opacity:0.78;"/><g transform="matrix(12,0,0,12,508.863,89.986)"></g><text x="411.228px" y="89.986px" style="font-family:'Tahoma';font-size:12px;">S<tspan x="417.35px 423.477px 429.212px 432.914px 438.666px 444.735px 447.921px 454.564px 460.516px 470.03px 476.099px 482.05px 488.178px 493.93px 500.057px 503.507px " y="89.986px 89.986px 89.986px 89.986px 89.986px 89.986px 89.986px 89.986px 89.986px 89.986px 89.986px 89.986px 89.986px 89.986px 89.986px 89.986px ">hared Components</tspan></text></g></svg>