<?xml version="1.0" encoding="UTF-8" standalone="no"?><!DOCTYPE svg PUBLIC "-//W3C//DTD SVG 1.1//EN" "http://www.w3.org/Graphics/SVG/1.1/DTD/svg11.dtd"><svg width="100%" height="100%" viewBox="0 0 542 254" version="1.1" xmlns="http://www.w3.org/2000/svg" xmlns:xlink="http://www.w3.org/1999/xlink" xml:space="preserve" xmlns:serif="http://www.serif.com/" style="fill-rule:evenodd;clip-rule:evenodd;stroke-linecap:round;stroke-linejoin:round;stroke-miterlimit:1.5;"><rect id="Attesting-Environments" serif:id="Attesting Environments" x="0" y="0.333" width="541.617" height="253.305" style="fill:none;"/><g id="System-Architecture" serif:id="System Architecture"><rect x="38.959" y="169.396" width="298.042" height="47.103" style="fill:#ebebeb;stroke:#bdbdbd;stroke-width:1.5px;"/><g transform="matrix(16,0,0,16,265.236,189.757)"></g><text x="111.728px" y="189.757px" style="font-family:'Tahoma-Bold', 'Tahoma';font-weight:700;font-size:16px;">Hardware Platform</text><g transform="matrix(14,0,0,14,289.223,206.849)"></g><text x="86.51px" y="206.849px" style="font-family:'Tahoma';font-size:14px;">motherboard, CPU<tspan x="199.973px 204.212px " y="206.849px 206.849px ">, </tspan>memory<tspan x="257.86px 262.098px " y="206.849px 206.849px ">, </tspan>etc.</text><rect x="38.959" y="140.293" width="298.042" height="29.103" style="fill:#ebebeb;stroke:#bdbdbd;stroke-width:1.5px;"/><g transform="matrix(16,0,0,16,228.927,160.786)"></g><text x="146.677px" y="160.786px" style="font-family:'Tahoma-Bold', 'Tahoma';font-weight:700;font-size:16px;">Microcode</text><rect x="38.959" y="111.19" width="83.564" height="29.103" style="fill:#ebebeb;stroke:#bdbdbd;stroke-width:1.5px;"/><g transform="matrix(16,0,0,16,99.9368,131.683)"></g><text x="61.242px" y="131.683px" style="font-family:'Tahoma-Bold', 'Tahoma';font-weight:700;font-size:16px;">UEFI</text><rect x="122.524" y="111.19" width="105.391" height="29.103" style="fill:#ebebeb;stroke:#bdbdbd;stroke-width:1.5px;"/><g transform="matrix(16,0,0,16,218.7,131.683)"></g><text x="130.536px" y="131.683px" style="font-family:'Tahoma-Bold', 'Tahoma';font-weight:700;font-size:16px;">Bootloader</text><rect x="227.425" y="85.321" width="109.576" height="54.973" style="fill:#ebebeb;stroke:#bdbdbd;stroke-width:1.5px;"/><g transform="matrix(16,0,0,16,308.642,131.683)"></g><text x="256.493px" y="131.683px" style="font-family:'Tahoma-Bold', 'Tahoma';font-weight:700;font-size:16px;">Kernel</text><rect x="227.568" y="21.681" width="109.433" height="63.639" style="fill:#ebebeb;stroke:#bdbdbd;stroke-width:1.5px;"/><g transform="matrix(16,0,0,16,325.21,42.028)"></g><text x="238.21px" y="42.028px" style="font-family:'Tahoma-Bold', 'Tahoma';font-weight:700;font-size:16px;">User space</text><rect x="284.817" y="95.105" width="39.91" height="15.36" style="fill:#ebebeb;stroke:#000;stroke-width:1.5px;"/><g transform="matrix(14,0,0,14,319.368,107.514)"></g><text x="290.513px" y="107.514px" style="font-family:'Tahoma-Bold', 'Tahoma';font-weight:700;font-size:14px;">IMA</text><rect x="235.249" y="50.834" width="39.91" height="23.773" style="fill:#ebebeb;stroke:#000;stroke-width:1.5px;"/><g transform="matrix(14,0,0,14,271.424,67.6701)"></g><text x="239.322px" y="67.67px" style="font-family:'Tahoma-Bold', 'Tahoma';font-weight:700;font-size:14px;">Files</text><rect x="281.731" y="50.834" width="47.994" height="23.8" style="fill:#ebebeb;stroke:#000;stroke-width:1.5px;"/><g transform="matrix(14,0,0,14,326.641,67.2198)"></g><text x="285.153px" y="67.22px" style="font-family:'Tahoma-Bold', 'Tahoma';font-weight:700;font-size:14px;">Agent</text><rect x="358.083" y="169.458" width="76.587" height="47.041" style="fill:#ebebeb;stroke:#bdbdbd;stroke-width:1.5px;"/><g transform="matrix(16,0,0,16,415.038,198.319)"></g><text x="380.436px" y="198.319px" style="font-family:'Tahoma-Bold', 'Tahoma';font-weight:700;font-size:16px;">TPM</text></g><g id="Attesting-Environments1" serif:id="Attesting Environments"><path d="M447.897,234.889l-420.469,-0c-4.24,-0 -7.682,-3.443 -7.682,-7.682l-0,-118.636c-0,-4.24 3.442,-7.682 7.682,-7.682l199.997,-0l0.49,39.404l219.982,0c3.859,0 6.992,3.133 6.992,6.992l-0,80.612c-0,3.859 -3.133,6.992 -6.992,6.992Z" style="fill:#d4746f;fill-opacity:0.39;stroke:#e64138;stroke-width:1.5px;stroke-dasharray:4.5,6,0,0,0,0;"/><path d="M444.889,137.902l-0,79.348c-0,4.768 -3.871,8.639 -8.639,8.639l-401.244,-0c-2.903,-0 -5.26,-2.357 -5.26,-5.261l-0,-75.075c-0,-2.903 2.357,-5.26 5.26,-5.26l192.419,0l0,-54.972l111.915,-0c5.288,-0 9.582,4.293 9.582,9.581l-0,25.04c-0,5.748 2.773,8.379 8.52,8.379l77.865,-0c5.288,-0 9.582,4.293 9.582,9.581Z" style="fill:#2b58cd;fill-opacity:0.39;stroke:#2a2acd;stroke-width:1.5px;stroke-dasharray:1.5,4.5,0,0,0,0;"/><rect x="388.809" y="31.738" width="15" height="15" style="fill:#d4746f;fill-opacity:0.39;stroke:#e64138;stroke-width:1.5px;stroke-dasharray:3,4.5,0,0,0,0;"/><rect x="388.809" y="55.738" width="15" height="15" style="fill:#2b58cd;fill-opacity:0.39;stroke:#2a2acd;stroke-width:1.5px;stroke-dasharray:0.75,3.75,0,0,0,0;"/><g transform="matrix(10,0,0,10,524.003,43.3216)"></g><text x="411.228px" y="43.322px" style="font-family:'Tahoma';font-size:10px;">U<tspan x="417.316px 422.456px 427.201px 430.462px 433.117px 438.574px 441.371px 444.246px 449.039px 453.032px 455.907px 457.722px 462.828px 467.886px 470.541px 475.681px 480.699px 485.21px 487.025px 490.11px 495.069px 500.175px 508.104px 512.898px 518.004px " y="43.322px 43.322px 43.322px 43.322px 43.322px 43.322px 43.322px 43.322px 43.322px 43.322px 43.322px 43.322px 43.322px 43.322px 43.322px 43.322px 43.322px 43.322px 43.322px 43.322px 43.322px 43.322px 43.322px 43.322px 43.322px ">EFI Attesting Environment</tspan></text><g transform="matrix(10,0,0,10,518.137,67.3216)"></g><text x="411.228px" y="67.322px" style="font-family:'Tahoma';font-size:10px;">I<tspan x="414.489px 421.724px 427.25px 429.905px 435.363px 438.159px 441.034px 445.828px 449.821px 452.695px 454.51px 459.617px 464.674px 467.329px 472.469px 477.488px 481.998px 483.813px 486.898px 491.858px 496.964px 504.892px 509.686px 514.792px " y="67.322px 67.322px 67.322px 67.322px 67.322px 67.322px 67.322px 67.322px 67.322px 67.322px 67.322px 67.322px 67.322px 67.322px 67.322px 67.322px 67.322px 67.322px 67.322px 67.322px 67.322px 67.322px 67.322px 67.322px ">MA Attesting Environment</tspan></text><rect x="388.809" y="78.736" width="15" height="15" style="fill:#a29cc9;fill-opacity:0.78;"/><g transform="matrix(10,0,0,10,492.59,90.3193)"></g><text x="411.228px" y="90.319px" style="font-family:'Tahoma';font-size:10px;">S<tspan x="416.33px 421.436px 426.215px 429.3px 434.093px 439.151px 441.806px 447.341px 452.301px 460.23px 465.287px 470.247px 475.353px 480.146px 485.253px 488.127px " y="90.319px 90.319px 90.319px 90.319px 90.319px 90.319px 90.319px 90.319px 90.319px 90.319px 90.319px 90.319px 90.319px 90.319px 90.319px 90.319px ">hared Components</tspan></text></g></svg>