<?xml version="1.0" encoding="UTF-8" standalone="no"?><!DOCTYPE svg PUBLIC "-//W3C//DTD SVG 1.1//EN" "http://www.w3.org/Graphics/SVG/1.1/DTD/svg11.dtd"><svg width="100%" height="100%" viewBox="0 0 721 524" version="1.1" xmlns="http://www.w3.org/2000/svg" xmlns:xlink="http://www.w3.org/1999/xlink" xml:space="preserve" xmlns:serif="http://www.serif.com/" style="fill-rule:evenodd;clip-rule:evenodd;stroke-linecap:round;stroke-linejoin:round;stroke-miterlimit:1.5;"><rect id="Architecture-Diagram" serif:id="Architecture Diagram" x="0.333" y="0" width="720.284" height="523.972" style="fill:none;"/><g id="System-Architecture" serif:id="System Architecture"><rect x="36.687" y="237.292" width="512.587" height="224.375" style="fill:#fff;stroke:#000;stroke-width:1.5px;"/><rect x="356.112" y="63.133" width="134.587" height="143.727" style="fill:#fff;stroke:#47a27a;stroke-width:2.5px;"/><rect x="142.626" y="401.063" width="298.042" height="47.103" style="fill:#969696;stroke:#000;stroke-width:1.5px;"/><g transform="matrix(16,0,0,16,368.902,421.423)"></g><text x="215.394px" y="421.423px" style="font-family:'Tahoma-Bold', 'Tahoma';font-weight:700;font-size:16px;">Hardware Platform</text><g transform="matrix(16,0,0,16,350.515,488.09)"></g><text x="235.851px" y="488.09px" style="font-family:'Tahoma-Bold', 'Tahoma';font-weight:700;font-size:16px;">Attested Node</text><g transform="matrix(16,0,0,16,493.39,46.0899)"></g><text x="372.578px" y="46.09px" style="font-family:'Tahoma-Bold', 'Tahoma';font-weight:700;font-size:16px;">Registrar Node</text><g transform="matrix(16,0,0,16,565.479,46.1344)"></g><g transform="matrix(16,0,0,16,571.535,46.1344)"></g><g transform="matrix(16,0,0,16,639.213,46.1344)"></g><text x="533.416px" y="46.134px" style="font-family:'Tahoma-Bold', 'Tahoma';font-weight:700;font-size:16px;">Veriﬁer Node</text><g transform="matrix(14,0,0,14,392.89,438.516)"></g><text x="190.177px" y="438.516px" style="font-family:'Tahoma';font-size:14px;">motherboard, CPU<tspan x="303.64px 307.878px " y="438.516px 438.516px ">, </tspan>memory<tspan x="361.527px 365.765px " y="438.516px 438.516px ">, </tspan>etc.</text><rect x="142.626" y="371.96" width="298.042" height="29.103" style="fill:#ebebeb;stroke:#000;stroke-width:1.5px;"/><g transform="matrix(16,0,0,16,332.594,392.453)"></g><text x="250.344px" y="392.453px" style="font-family:'Tahoma-Bold', 'Tahoma';font-weight:700;font-size:16px;">Microcode</text><rect x="366.568" y="137.987" width="114.076" height="29.103" style="fill:#ebebeb;stroke:#000;stroke-width:1.5px;"/><g transform="matrix(16,0,0,16,449.474,158.48)"></g><text x="397.326px" y="158.48px" style="font-family:'Tahoma-Bold', 'Tahoma';font-weight:700;font-size:16px;">Kernel</text><rect x="366.796" y="167.09" width="114.076" height="29.103" style="fill:#969696;stroke:#000;stroke-width:1.5px;"/><g transform="matrix(16,0,0,16,458.599,187.583)"></g><text x="388.842px" y="187.583px" style="font-family:'Tahoma-Bold', 'Tahoma';font-weight:700;font-size:16px;">Platform</text><rect x="142.626" y="342.857" width="83.564" height="29.103" style="fill:#ebebeb;stroke:#000;stroke-width:1.5px;"/><g transform="matrix(16,0,0,16,203.603,363.35)"></g><text x="164.908px" y="363.35px" style="font-family:'Tahoma-Bold', 'Tahoma';font-weight:700;font-size:16px;">UEFI</text><rect x="226.19" y="342.857" width="105.391" height="29.103" style="fill:#ebebeb;stroke:#000;stroke-width:1.5px;"/><g transform="matrix(16,0,0,16,322.367,363.35)"></g><text x="234.202px" y="363.35px" style="font-family:'Tahoma-Bold', 'Tahoma';font-weight:700;font-size:16px;">Bootloader</text><rect x="331.092" y="316.987" width="109.576" height="54.973" style="fill:#ebebeb;stroke:#000;stroke-width:1.5px;"/><g transform="matrix(16,0,0,16,412.308,363.35)"></g><text x="360.16px" y="363.35px" style="font-family:'Tahoma-Bold', 'Tahoma';font-weight:700;font-size:16px;">Kernel</text><rect x="331.234" y="253.348" width="109.433" height="63.639" style="fill:#ebebeb;stroke:#000;stroke-width:1.5px;"/><rect x="429.092" y="281.58" width="13.333" height="29.601" style="fill:#ebebeb;"/><g transform="matrix(16,0,0,16,429.826,273.619)"></g><text x="340.928px" y="273.619px" style="font-family:'Tahoma-Bold', 'Tahoma';font-weight:700;font-size:16px;">User Space</text><rect x="366.568" y="74.348" width="114.076" height="63.639" style="fill:#ebebeb;stroke:#000;stroke-width:1.5px;"/><g transform="matrix(16,0,0,16,467.182,95.3613)"></g><text x="378.284px" y="95.361px" style="font-family:'Tahoma-Bold', 'Tahoma';font-weight:700;font-size:16px;">User Space</text><rect x="388.483" y="326.772" width="39.91" height="15.36" style="fill:#ebebeb;stroke:#000;stroke-width:1.5px;"/><g transform="matrix(14,0,0,14,423.034,339.181)"></g><text x="394.18px" y="339.181px" style="font-family:'Tahoma-Bold', 'Tahoma';font-weight:700;font-size:14px;">IMA</text><rect x="338.916" y="282.501" width="39.91" height="23.773" style="fill:#ebebeb;stroke:#000;stroke-width:1.5px;"/><g transform="matrix(14,0,0,14,375.091,299.337)"></g><text x="342.989px" y="299.337px" style="font-family:'Tahoma-Bold', 'Tahoma';font-weight:700;font-size:14px;">Files</text><rect x="385.398" y="282.501" width="47.994" height="23.8" style="fill:#b9d2dc;stroke:#000;stroke-width:1.5px;"/><g transform="matrix(14,0,0,14,430.307,298.886)"></g><text x="388.82px" y="298.886px" style="font-family:'Tahoma-Bold', 'Tahoma';font-weight:700;font-size:14px;">Agent</text><rect x="375.837" y="106.834" width="95.661" height="23.337" style="fill:#b9d2dc;stroke:#000;stroke-width:1.5px;"/><g transform="matrix(14,0,0,14,456.032,123.22)"></g><text x="390.974px" y="123.22px" style="font-family:'Tahoma-Bold', 'Tahoma';font-weight:700;font-size:14px;">Registrar</text><rect x="508.779" y="63.133" width="134.587" height="143.727" style="fill:#fff;stroke:#47a27a;stroke-width:2.5px;"/><rect x="519.234" y="137.987" width="114.076" height="29.103" style="fill:#ebebeb;stroke:#000;stroke-width:1.5px;"/><g transform="matrix(16,0,0,16,602.141,158.48)"></g><text x="549.992px" y="158.48px" style="font-family:'Tahoma-Bold', 'Tahoma';font-weight:700;font-size:16px;">Kernel</text><rect x="519.462" y="167.09" width="114.076" height="29.103" style="fill:#969696;stroke:#000;stroke-width:1.5px;"/><g transform="matrix(16,0,0,16,611.266,187.583)"></g><text x="541.508px" y="187.583px" style="font-family:'Tahoma-Bold', 'Tahoma';font-weight:700;font-size:16px;">Platform</text><rect x="519.234" y="74.348" width="114.076" height="63.639" style="fill:#ebebeb;stroke:#000;stroke-width:1.5px;"/><g transform="matrix(16,0,0,16,619.849,95.3613)"></g><text x="530.95px" y="95.361px" style="font-family:'Tahoma-Bold', 'Tahoma';font-weight:700;font-size:16px;">User Space</text><rect x="534.671" y="106.834" width="83.328" height="23.337" style="fill:#b9d2dc;stroke:#000;stroke-width:1.5px;"/><g transform="matrix(14,0,0,14,578.265,123.22)"></g><g transform="matrix(14,0,0,14,583.564,123.22)"></g><g transform="matrix(14,0,0,14,602.129,123.22)"></g><text x="550.21px" y="123.22px" style="font-family:'Tahoma-Bold', 'Tahoma';font-weight:700;font-size:14px;">Veriﬁer</text><rect x="458.733" y="397.6" width="82.6" height="53" style="fill:none;stroke:#47a27a;stroke-width:2.5px;"/><rect x="461.749" y="400.6" width="76.587" height="47.041" style="fill:#969696;stroke:#000;stroke-width:1.5px;"/><g transform="matrix(16,0,0,16,508.705,429.986)"></g><text x="474.103px" y="429.986px" style="font-family:'Tahoma-Bold', 'Tahoma';font-weight:700;font-size:16px;">TPM</text><rect x="44.083" y="397.649" width="82.6" height="53" style="fill:none;stroke:#47a27a;stroke-width:2.5px;"/><rect x="139.583" y="397.6" width="304.1" height="53" style="fill:none;stroke:#47a27a;stroke-width:2.5px;"/><rect x="47.083" y="400.649" width="76.587" height="47.041" style="fill:#969696;stroke:#000;stroke-width:1.5px;"/><g transform="matrix(16,0,0,16,94.7099,429.51)"></g><text x="58.765px" y="429.51px" style="font-family:'Tahoma-Bold', 'Tahoma';font-weight:700;font-size:16px;">BMC</text><path d="M239.126,344.076l-1.269,6.159l-4.167,-4.71l5.436,-1.449Z" style="fill:#47a27a;"/><path d="M198.524,346.902c3.524,-16.379 31.227,-19.604 38.174,-1.015" style="fill:none;stroke:#47a27a;stroke-width:1.5px;"/><g transform="matrix(1,0,0,1,-116.842,68.6662)"><g transform="matrix(0.612481,-0.790486,0.790486,0.612481,-93.1134,352.547)"><text x="313.017px" y="271.243px" style="font-family:'Tahoma';font-size:12px;fill:#5fbc93;">m</text></g><g transform="matrix(0.868273,-0.496087,0.496087,0.868273,-88.7882,193.135)"><text x="319.281px" y="263.756px" style="font-family:'Tahoma';font-size:12px;fill:#5fbc93;">e</text></g><g transform="matrix(0.960895,-0.276912,0.276912,0.960895,-59.5267,100.048)"><text x="324.47px" y="260.787px" style="font-family:'Tahoma';font-size:12px;fill:#5fbc93;">a</text></g><g transform="matrix(0.998458,-0.0555191,0.0555191,0.998458,-13.8792,18.7332)"><text x="330.219px" y="259.164px" style="font-family:'Tahoma';font-size:12px;fill:#5fbc93;">s</text></g><g transform="matrix(0.986555,0.163431,-0.163431,0.986555,46.7972,-51.3073)"><text x="335.227px" y="258.764px" style="font-family:'Tahoma';font-size:12px;fill:#5fbc93;">u</text></g><g transform="matrix(0.922573,0.385824,-0.385824,0.922573,126.696,-111.63)"><text x="341.477px" y="259.851px" style="font-family:'Tahoma';font-size:12px;fill:#5fbc93;">r</text></g><g transform="matrix(0.827789,0.56104,-0.56104,0.827789,205.992,-148.679)"><text x="345.183px" y="261.207px" style="font-family:'Tahoma';font-size:12px;fill:#5fbc93;">e</text></g><g transform="matrix(0.669518,0.742796,-0.742796,0.669518,312.235,-172.638)"><text x="350.129px" y="264.573px" style="font-family:'Tahoma';font-size:12px;fill:#5fbc93;">s</text></g></g><rect x="330.092" y="319.556" width="13.333" height="17.625" style="fill:#ebebeb;"/><g transform="matrix(1,0,0,1,-11.842,68.5835)"><g transform="matrix(0.612481,-0.790486,0.790486,0.612481,-93.1134,352.547)"><text x="313.017px" y="271.243px" style="font-family:'Tahoma';font-size:12px;fill:#5fbc93;">m</text></g><g transform="matrix(0.868273,-0.496087,0.496087,0.868273,-88.7882,193.135)"><text x="319.281px" y="263.756px" style="font-family:'Tahoma';font-size:12px;fill:#5fbc93;">e</text></g><g transform="matrix(0.960895,-0.276912,0.276912,0.960895,-59.5267,100.048)"><text x="324.47px" y="260.787px" style="font-family:'Tahoma';font-size:12px;fill:#5fbc93;">a</text></g><g transform="matrix(0.998458,-0.0555191,0.0555191,0.998458,-13.8792,18.7332)"><text x="330.219px" y="259.164px" style="font-family:'Tahoma';font-size:12px;fill:#5fbc93;">s</text></g><g transform="matrix(0.986555,0.163431,-0.163431,0.986555,46.7972,-51.3073)"><text x="335.227px" y="258.764px" style="font-family:'Tahoma';font-size:12px;fill:#5fbc93;">u</text></g><g transform="matrix(0.922573,0.385824,-0.385824,0.922573,126.696,-111.63)"><text x="341.477px" y="259.851px" style="font-family:'Tahoma';font-size:12px;fill:#5fbc93;">r</text></g><g transform="matrix(0.827789,0.56104,-0.56104,0.827789,205.992,-148.679)"><text x="345.183px" y="261.207px" style="font-family:'Tahoma';font-size:12px;fill:#5fbc93;">e</text></g><g transform="matrix(0.669518,0.742796,-0.742796,0.669518,312.235,-172.638)"><text x="350.129px" y="264.573px" style="font-family:'Tahoma';font-size:12px;fill:#5fbc93;">s</text></g></g><path d="M344.369,341.813l-0.611,6.26l-4.64,-4.245l5.251,-2.015Z" style="fill:#47a27a;"/><path d="M304.425,346.739c0.416,-15.789 28.605,-21.284 37.722,-2.868" style="fill:none;stroke:#47a27a;stroke-width:1.5px;"/><rect x="345.214" y="312.154" width="19.346" height="12.667" style="fill:#ebebeb;"/><g transform="matrix(1,0,0,1,-96.6667,84.5979)"><g transform="matrix(0.260287,0.965531,-0.965531,0.260287,547.389,-260.474)"><text x="443.69px" y="227.011px" style="font-family:'Tahoma';font-size:12px;fill:#5fbc93;">m</text></g><g transform="matrix(0.410223,0.911985,-0.911985,0.410223,479.443,-267.459)"><text x="446.51px" y="236.958px" style="font-family:'Tahoma';font-size:12px;fill:#5fbc93;">e</text></g><g transform="matrix(0.54427,0.83891,-0.83891,0.54427,408.517,-266.142)"><text x="449.216px" y="242.929px" style="font-family:'Tahoma';font-size:12px;fill:#5fbc93;">a</text></g><g transform="matrix(0.686371,0.727252,-0.727252,0.686371,322.661,-251.423)"><text x="452.833px" y="248.386px" style="font-family:'Tahoma';font-size:12px;fill:#5fbc93;">s</text></g><g transform="matrix(0.811174,0.584805,-0.584805,0.811174,233.902,-219.38)"><text x="456.667px" y="252.514px" style="font-family:'Tahoma';font-size:12px;fill:#5fbc93;">u</text></g><g transform="matrix(0.90377,0.428018,-0.428018,0.90377,154.272,-173.216)"><text x="462.358px" y="256.484px" style="font-family:'Tahoma';font-size:12px;fill:#5fbc93;">r</text></g><g transform="matrix(0.953367,0.301814,-0.301814,0.953367,99.7635,-128.714)"><text x="466.406px" y="258.482px" style="font-family:'Tahoma';font-size:12px;fill:#5fbc93;">e</text></g><g transform="matrix(0.985416,0.170161,-0.170161,0.985416,51.2045,-76.6339)"><text x="472.681px" y="260.407px" style="font-family:'Tahoma';font-size:12px;fill:#5fbc93;">s</text></g></g><path d="M357.275,314.471l2.254,-5.872l3.345,5.326l-5.599,0.546Z" style="fill:#47a27a;"/><path d="M384.483,334.452c0,0 -21.136,-1.472 -24.517,-21.374" style="fill:none;stroke:#47a27a;stroke-width:1.5px;"/><path d="M111.056,393.507l2.085,2.894l-4.842,3.489l-5.341,-0.548l8.098,-5.835Z" style="fill:#fff;"/><path d="M146.431,384.213l5.61,2.842l-5.64,2.783l0.03,-5.625Z" style="fill:#5fbc93;"/><path d="M98.541,407.055c12.584,-13.842 24.574,-19.816 49,-20.024" style="fill:none;stroke:#5fbc93;stroke-width:1.5px;"/><path d="M442.307,306.813l-6.016,-5.841l8.282,-1.308l-2.266,7.149Z"/><path d="M500.043,407.639c-0,-0 1.487,-83.41 -58.033,-104.854" style="fill:none;stroke:#000;stroke-width:2px;"/><g transform="matrix(0.989055,0.147545,-0.147545,0.989055,-30.928,-81.7242)"><g transform="matrix(0.810508,0.585727,-0.585727,0.810508,291.162,-267.74)"><text x="559.379px" y="316.127px" style="font-family:'Tahoma';font-size:14px;">q</text></g><g transform="matrix(0.741876,0.670537,-0.670537,0.741876,361.029,-296.511)"><text x="565.642px" y="320.673px" style="font-family:'Tahoma';font-size:14px;">u</text></g><g transform="matrix(0.671192,0.741284,-0.741284,0.671192,429.48,-316.423)"><text x="571.421px" y="325.91px" style="font-family:'Tahoma';font-size:14px;">o</text></g><g transform="matrix(0.613448,0.789735,-0.789735,0.613448,484.705,-327.095)"><text x="576.484px" y="331.585px" style="font-family:'Tahoma';font-size:14px;">t</text></g><g transform="matrix(0.558511,0.829497,-0.829497,0.558511,533.892,-332.594)"><text x="579.395px" y="335.258px" style="font-family:'Tahoma';font-size:14px;">e</text></g></g><g transform="matrix(1,0,0,1,-104.512,69.9167)"><g transform="matrix(0.849257,-0.527979,0.527979,0.849257,-137.85,161.177)"><text x="213.338px" y="322px" style="font-family:'Tahoma';font-size:12px;fill:#5fbc93;">l</text></g><g transform="matrix(0.896868,-0.442297,0.442297,0.896868,-119.501,128.425)"><text x="215.635px" y="320.462px" style="font-family:'Tahoma';font-size:12px;fill:#5fbc93;">o</text></g><g transform="matrix(0.945939,-0.324346,0.324346,0.945939,-91.0378,89.0119)"><text x="221.498px" y="317.601px" style="font-family:'Tahoma';font-size:12px;fill:#5fbc93;">a</text></g><g transform="matrix(0.976703,-0.214597,0.214597,0.976703,-62.4246,56.1637)"><text x="227.457px" y="315.586px" style="font-family:'Tahoma';font-size:12px;fill:#5fbc93;">d</text></g><g transform="matrix(0.991776,-0.127983,0.127983,0.991776,-38.2892,32.5259)"><text x="233.953px" y="314.207px" style="font-family:'Tahoma';font-size:12px;fill:#5fbc93;">s</text></g></g><path d="M84.703,392.612l3.185,1.605l-2.685,5.33l-3.992,-0.021l3.492,-6.914Z" style="fill:#fff;"/><path d="M146.328,354.78l5.713,2.628l-5.531,2.994l-0.182,-5.622Z" style="fill:#5fbc93;"/><path d="M81.17,406.511c7.239,-28.359 38.029,-47.133 66.373,-48.957" style="fill:none;stroke:#5fbc93;stroke-width:1.5px;"/><g transform="matrix(1,0,0,1,-134.513,69.5006)"><g transform="matrix(0.796645,-0.604447,0.604447,0.796645,-134.609,202.436)"><text x="233.554px" y="301.273px" style="font-family:'Tahoma';font-size:12px;fill:#5fbc93;">l</text></g><g transform="matrix(0.83144,-0.555615,0.555615,0.83144,-126.714,181.458)"><text x="235.708px" y="299.569px" style="font-family:'Tahoma';font-size:12px;fill:#5fbc93;">o</text></g><g transform="matrix(0.871885,-0.489711,0.489711,0.871885,-114.035,156.01)"><text x="241.15px" y="295.949px" style="font-family:'Tahoma';font-size:12px;fill:#5fbc93;">a</text></g><g transform="matrix(0.907132,-0.420846,0.420846,0.907132,-100.352,130.996)"><text x="246.64px" y="292.879px" style="font-family:'Tahoma';font-size:12px;fill:#5fbc93;">d</text></g><g transform="matrix(0.935966,-0.35209,0.35209,0.935966,-85.9673,107.538)"><text x="252.666px" y="290.115px" style="font-family:'Tahoma';font-size:12px;fill:#5fbc93;">s</text></g></g><path d="M381.817,114.381l6.962,4.674l-7.916,2.765l0.954,-7.439Z"/><path d="M436.291,285.168c-0,-0 33.16,-0.201 31.878,-34.106c-0.603,-15.927 -12.303,-29.604 -34.777,-31.257c-27.916,-2.053 -70.932,13.479 -100.351,-3.75c-25.983,-15.216 -38.554,-52.943 -15,-80c17.5,-20.102 51.155,-19.113 64.787,-17.763" style="fill:none;stroke:#000;stroke-width:2px;"/><g transform="matrix(1,0,0,1,-100,-0.333333)"><g transform="matrix(-0.0633852,-0.997989,0.997989,-0.0633852,233.048,589.913)"><text x="393.342px" y="185.599px" style="font-family:'Tahoma';font-size:14px;">p</text></g><g transform="matrix(-0.0171432,-0.999853,0.999853,-0.0171432,221.784,573.763)"><text x="392.897px" y="177.875px" style="font-family:'Tahoma';font-size:14px;">l</text></g><g transform="matrix(0.0289262,-0.999582,0.999582,0.0289262,206.851,562.242)"><text x="392.799px" y="174.659px" style="font-family:'Tahoma';font-size:14px;">a</text></g><g transform="matrix(0.0898372,-0.995956,0.995956,0.0898372,191.114,543.744)"><text x="393.056px" y="167.308px" style="font-family:'Tahoma';font-size:14px;">t</text></g><g transform="matrix(0.140635,-0.990061,0.990061,0.140635,177.082,529.342)"><text x="393.464px" y="162.664px" style="font-family:'Tahoma';font-size:14px;">f</text></g><g transform="matrix(0.207272,-0.978283,0.978283,0.207272,157.422,510.977)"><text x="394.002px" y="158.354px" style="font-family:'Tahoma';font-size:14px;">o</text></g><g transform="matrix(0.325474,-0.945551,0.945551,0.325474,124.135,475.847)"><text x="395.589px" y="150.917px" style="font-family:'Tahoma';font-size:14px;">r</text></g><g transform="matrix(0.476615,-0.879112,0.879112,0.476615,79.4034,425.384)"><text x="396.953px" y="146.006px" style="font-family:'Tahoma';font-size:14px;">m</text></g><g transform="matrix(0.668469,-0.74374,0.74374,0.668469,35.9802,345.475)"><text x="405.501px" y="132.38px" style="font-family:'Tahoma';font-size:14px;">i</text></g><g transform="matrix(0.739702,-0.672935,0.672935,0.739702,18.6655,308.093)"><text x="407.58px" y="129.919px" style="font-family:'Tahoma';font-size:14px;">d</text></g><g transform="matrix(0.829135,-0.559048,0.559048,0.829135,0.889162,252.385)"><text x="413.33px" y="124.738px" style="font-family:'Tahoma';font-size:14px;">e</text></g><g transform="matrix(0.895598,-0.444865,0.444865,0.895598,-9.85547,199.193)"><text x="419.459px" y="120.594px" style="font-family:'Tahoma';font-size:14px;">n</text></g><g transform="matrix(0.935879,-0.352321,0.352321,0.935879,-13.9421,157.775)"><text x="426.487px" y="117.191px" style="font-family:'Tahoma';font-size:14px;">t</text></g><g transform="matrix(0.954833,-0.297144,0.297144,0.954833,-14.8772,133.251)"><text x="430.872px" y="115.562px" style="font-family:'Tahoma';font-size:14px;">i</text></g><g transform="matrix(0.970304,-0.241888,0.241888,0.970304,-14.8298,108.37)"><text x="433.947px" y="114.583px" style="font-family:'Tahoma';font-size:14px;">t</text></g><g transform="matrix(0.985652,-0.168791,0.168791,0.985652,-12.8571,75.619)"><text x="438.361px" y="113.435px" style="font-family:'Tahoma';font-size:14px;">y</text></g></g><g transform="matrix(-0.636156,0.771561,-0.771561,-0.636156,1051.92,-68.9516)"><g transform="matrix(0.0278879,-0.999611,0.999611,0.0278879,205.035,565.434)"><text x="393.232px" y="177.3px" style="font-family:'Tahoma';font-size:14px;">e</text></g><g transform="matrix(0.139303,-0.99025,0.99025,0.139303,170.366,535.864)"><text x="393.444px" y="169.927px" style="font-family:'Tahoma';font-size:14px;">v</text></g><g transform="matrix(0.220757,-0.975329,0.975329,0.220757,148.384,511.807)"><text x="394.49px" y="163.042px" style="font-family:'Tahoma';font-size:14px;">i</text></g><g transform="matrix(0.30511,-0.952317,0.952317,0.30511,122.306,487.375)"><text x="395.116px" y="159.88px" style="font-family:'Tahoma';font-size:14px;">d</text></g><g transform="matrix(0.429053,-0.903279,0.903279,0.429053,89.1852,446.138)"><text x="397.503px" y="152.52px" style="font-family:'Tahoma';font-size:14px;">e</text></g><g transform="matrix(0.541939,-0.840418,0.840418,0.541939,60.9596,403.526)"><text x="400.66px" y="145.841px" style="font-family:'Tahoma';font-size:14px;">n</text></g><g transform="matrix(0.63769,-0.770293,0.770293,0.63769,39.4149,362.38)"><text x="404.928px" y="139.291px" style="font-family:'Tahoma';font-size:14px;">c</text></g><g transform="matrix(0.716447,-0.697642,0.697642,0.716447,22.2815,323.432)"><text x="409.02px" y="134.306px" style="font-family:'Tahoma';font-size:14px;">e</text></g></g><path d="M614.607,120.801l-8.064,-2.298l6.677,-5.072l1.387,7.37Z"/><path d="M436.543,293.555c113,5.931 174.303,3.461 217,-40.207c29.417,-30.087 37.298,-81.616 17.5,-113.293c-16.013,-25.62 -45.943,-24.475 -58.604,-22.662" style="fill:none;stroke:#000;stroke-width:2px;"/></g><path d="M106.538,432.032c-5.022,-1.328 -5.861,-7.392 -5.861,-7.392c-0.058,-0.436 0.249,-0.836 0.684,-0.894c0.435,-0.057 0.835,0.249 0.893,0.685c-0,-0 0.548,3.233 3.961,4.299l0.377,-5.534l-1.661,0c-0.39,0 -0.707,-0.316 -0.707,-0.706c0,-0.39 0.317,-0.707 0.707,-0.707l1.757,0l0.144,-2.102c-0.762,-0.527 -1.262,-1.408 -1.262,-2.404c0,-1.612 1.309,-2.92 2.921,-2.92c1.612,-0 2.921,1.308 2.921,2.92c-0,0.996 -0.5,1.876 -1.261,2.404l0.143,2.102l1.757,0c0.39,0 0.707,0.317 0.707,0.707c-0,0.39 -0.317,0.706 -0.707,0.706l-1.661,0l0.381,5.585c3.514,-1.005 3.954,-4.329 3.954,-4.329c0.046,-0.437 0.438,-0.754 0.875,-0.708c0.436,0.046 0.753,0.438 0.708,0.874c-0,0 -0.698,6.284 -5.927,7.475l-1.89,1.908l-1.953,-1.969Z" style="fill:#5fbc93;stroke:#222;stroke-width:1.25px;"/><path d="M403.538,432.075c-5.022,-1.327 -5.861,-7.392 -5.861,-7.392c-0.058,-0.435 0.249,-0.835 0.684,-0.893c0.435,-0.058 0.835,0.249 0.893,0.684c-0,0 0.548,3.234 3.961,4.299l0.377,-5.533l-1.661,-0c-0.39,-0 -0.707,-0.317 -0.707,-0.707c0,-0.39 0.317,-0.706 0.707,-0.706l1.757,-0l0.144,-2.103c-0.762,-0.527 -1.262,-1.407 -1.262,-2.403c0,-1.612 1.309,-2.921 2.921,-2.921c1.612,0 2.921,1.309 2.921,2.921c-0,0.996 -0.5,1.876 -1.261,2.403l0.143,2.103l1.757,-0c0.39,-0 0.707,0.316 0.707,0.706c-0,0.39 -0.317,0.707 -0.707,0.707l-1.661,-0l0.381,5.584c3.514,-1.005 3.954,-4.329 3.954,-4.329c0.046,-0.436 0.438,-0.753 0.875,-0.708c0.436,0.046 0.753,0.438 0.708,0.875c-0,-0 -0.698,6.284 -5.927,7.474l-1.89,1.909l-1.953,-1.97Z" style="fill:#5fbc93;stroke:#222;stroke-width:1.25px;"/><path d="M356.339,48.032c-5.022,-1.328 -5.862,-7.392 -5.862,-7.392c-0.057,-0.436 0.249,-0.836 0.684,-0.894c0.436,-0.057 0.836,0.249 0.893,0.685c0,-0 0.548,3.233 3.961,4.299l0.378,-5.534l-1.662,0c-0.39,0 -0.706,-0.316 -0.706,-0.706c-0,-0.39 0.316,-0.707 0.706,-0.707l1.758,0l0.143,-2.102c-0.762,-0.527 -1.261,-1.408 -1.261,-2.404c-0,-1.612 1.308,-2.92 2.92,-2.92c1.612,-0 2.921,1.308 2.921,2.92c0,0.996 -0.499,1.876 -1.261,2.404l0.143,2.102l1.758,0c0.39,0 0.706,0.317 0.706,0.707c0,0.39 -0.316,0.706 -0.706,0.706l-1.661,0l0.38,5.585c3.514,-1.005 3.955,-4.329 3.955,-4.329c0.046,-0.437 0.437,-0.754 0.874,-0.708c0.437,0.046 0.754,0.438 0.708,0.874c0,0 -0.698,6.284 -5.926,7.475l-1.891,1.908l-1.952,-1.969Z" style="fill:#5fbc93;stroke:#222;stroke-width:1.25px;"/><path d="M517.672,48.075c-5.022,-1.327 -5.861,-7.392 -5.861,-7.392c-0.058,-0.435 0.249,-0.835 0.684,-0.893c0.435,-0.058 0.835,0.249 0.893,0.684c-0,0 0.547,3.234 3.961,4.299l0.377,-5.533l-1.662,-0c-0.389,-0 -0.706,-0.317 -0.706,-0.707c0,-0.39 0.317,-0.706 0.706,-0.706l1.758,-0l0.144,-2.103c-0.762,-0.527 -1.262,-1.407 -1.262,-2.403c-0,-1.612 1.309,-2.921 2.921,-2.921c1.612,0 2.921,1.309 2.921,2.921c-0,0.996 -0.5,1.876 -1.262,2.403l0.144,2.103l1.757,-0c0.39,-0 0.706,0.316 0.706,0.706c0,0.39 -0.316,0.707 -0.706,0.707l-1.661,-0l0.38,5.584c3.515,-1.005 3.955,-4.329 3.955,-4.329c0.046,-0.436 0.438,-0.753 0.874,-0.708c0.437,0.046 0.754,0.438 0.708,0.875c0,-0 -0.697,6.284 -5.926,7.474l-1.89,1.909l-1.953,-1.97Z" style="fill:#5fbc93;stroke:#222;stroke-width:1.25px;"/><path d="M518.563,432.032c-5.022,-1.328 -5.862,-7.392 -5.862,-7.392c-0.057,-0.436 0.249,-0.836 0.685,-0.894c0.435,-0.057 0.835,0.249 0.893,0.685c-0,-0 0.547,3.233 3.96,4.299l0.378,-5.534l-1.662,0c-0.39,0 -0.706,-0.316 -0.706,-0.706c-0,-0.39 0.316,-0.707 0.706,-0.707l1.758,0l0.143,-2.102c-0.762,-0.527 -1.261,-1.408 -1.261,-2.404c-0,-1.612 1.308,-2.92 2.921,-2.92c1.612,-0 2.92,1.308 2.92,2.92c0,0.996 -0.499,1.876 -1.261,2.404l0.143,2.102l1.758,0c0.39,0 0.706,0.317 0.706,0.707c0,0.39 -0.316,0.706 -0.706,0.706l-1.661,0l0.38,5.585c3.514,-1.005 3.955,-4.329 3.955,-4.329c0.046,-0.437 0.438,-0.754 0.874,-0.708c0.437,0.046 0.754,0.438 0.708,0.874c0,0 -0.698,6.284 -5.926,7.475l-1.89,1.908l-1.953,-1.969Z" style="fill:#5fbc93;stroke:#222;stroke-width:1.25px;"/><rect x="78.809" y="62.738" width="15" height="15" style="fill:#969696;stroke:#000;stroke-width:1.5px;"/><rect x="78.809" y="86.738" width="15" height="15" style="fill:#ebebeb;stroke:#000;stroke-width:1.5px;"/><g transform="matrix(12,0,0,12,148.263,74.3216)"></g><text x="101.228px" y="74.322px" style="font-family:'Tahoma';font-size:12px;">H<tspan x="108.768px 114.503px 118.204px 124.273px 132.51px 138.245px 141.946px " y="74.322px 74.322px 74.322px 74.322px 74.322px 74.322px 74.322px ">ardware</tspan></text><g transform="matrix(12,0,0,12,144.021,98.3216)"></g><text x="101.228px" y="98.322px" style="font-family:'Tahoma';font-size:12px;">S<tspan x="107.373px 113.325px 116.581px 120.031px 128.268px 134.003px 137.704px " y="98.322px 98.322px 98.322px 98.322px 98.322px 98.322px 98.322px ">oftware</tspan></text><rect x="78.809" y="110.736" width="15" height="15" style="fill:#b9d2dc;stroke:#000;stroke-width:1.5px;"/><g transform="matrix(12,0,0,12,197.521,123.319)"></g><text x="101.228px" y="123.319px" style="font-family:'Tahoma';font-size:12px;">K<tspan x="107.385px 113.137px 118.55px 120.74px 122.918px 132.432px 138.185px 141.371px 148.014px 153.965px 163.479px 169.548px 175.5px 181.627px 187.38px 193.507px " y="123.319px 123.319px 123.319px 123.319px 123.319px 123.319px 123.319px 123.319px 123.319px 123.319px 123.319px 123.319px 123.319px 123.319px 123.319px 123.319px ">eylime Component</tspan></text><g transform="matrix(12,0,0,12,162.009,156.319)"></g><text x="101.228px" y="156.319px" style="font-family:'Tahoma';font-size:12px;">T<tspan x="106.559px 110.319px 116.447px 121.238px 124.688px 127.874px 134.505px 140.632px 145.605px 151.733px 157.685px " y="156.319px 156.319px 156.319px 156.319px 156.319px 156.319px 156.319px 156.319px 156.319px 156.319px 156.319px ">rust Anchor</tspan></text><g transform="matrix(12,0,0,12,185.642,179.319)"></g><text x="101.228px" y="179.319px" style="font-family:'Tahoma';font-size:12px;">T<tspan x="106.559px 110.319px 116.447px 121.238px 124.688px 127.874px 134.54px 140.293px 142.471px 148.206px 151.655px 153.833px 159.785px 165.912px 170.704px 176.831px 179.009px " y="179.319px 179.319px 179.319px 179.319px 179.319px 179.319px 179.319px 179.319px 179.319px 179.319px 179.319px 179.319px 179.319px 179.319px 179.319px 179.319px 179.319px ">rust Relationship</tspan></text><path d="M87.684,172.218l7.5,3.75l-7.5,3.75l-0,-7.5Z" style="fill:#47a27a;"/><path d="M79.515,175.968l9.669,-0" style="fill:none;stroke:#47a27a;stroke-width:2.5px;"/><path d="M84.391,159.319c-4.326,-1.143 -5.048,-6.367 -5.048,-6.367c-0.05,-0.374 0.214,-0.719 0.589,-0.769c0.375,-0.049 0.719,0.215 0.769,0.59c0,-0 0.472,2.785 3.411,3.702l0.325,-4.766l-1.431,0c-0.336,0 -0.608,-0.272 -0.608,-0.608c-0,-0.336 0.272,-0.609 0.608,-0.609l1.514,0l0.124,-1.81c-0.657,-0.454 -1.087,-1.212 -1.087,-2.07c0,-1.389 1.127,-2.516 2.516,-2.516c1.388,0 2.515,1.127 2.515,2.516c0,0.857 -0.43,1.615 -1.086,2.07l0.123,1.81l1.514,0c0.336,0 0.608,0.273 0.608,0.609c0,0.336 -0.272,0.608 -0.608,0.608l-1.431,0l0.328,4.81c3.027,-0.865 3.406,-3.728 3.406,-3.728c0.04,-0.376 0.377,-0.649 0.753,-0.61c0.376,0.04 0.649,0.377 0.61,0.753c-0,0 -0.601,5.412 -5.104,6.438l-1.628,1.643l-1.682,-1.696Z" style="fill:#5fbc93;stroke:#222;stroke-width:1px;"/></svg>