<?xml version="1.0" encoding="UTF-8" standalone="no"?><!DOCTYPE svg PUBLIC "-//W3C//DTD SVG 1.1//EN" "http://www.w3.org/Graphics/SVG/1.1/DTD/svg11.dtd"><svg width="100%" height="100%" viewBox="0 0 722 524" version="1.1" xmlns="http://www.w3.org/2000/svg" xmlns:xlink="http://www.w3.org/1999/xlink" xml:space="preserve" xmlns:serif="http://www.serif.com/" style="fill-rule:evenodd;clip-rule:evenodd;stroke-linecap:round;stroke-linejoin:round;stroke-miterlimit:1.5;"><rect id="Architecture-Diagram" serif:id="Architecture Diagram" x="0.833" y="0" width="720.284" height="523.972" style="fill:none;"/><g id="System-Architecture" serif:id="System Architecture"><rect x="37.187" y="237.292" width="512.587" height="224.375" style="fill:#fff;stroke:#000;stroke-width:1.5px;"/><rect x="356.612" y="63.133" width="134.587" height="143.727" style="fill:#fff;stroke:#47a27a;stroke-width:2.5px;"/><rect x="143.126" y="401.063" width="298.042" height="47.103" style="fill:#969696;stroke:#000;stroke-width:1.5px;"/><g transform="matrix(16,0,0,16,369.402,421.423)"></g><text x="215.894px" y="421.423px" style="font-family:'Tahoma-Bold', 'Tahoma';font-weight:700;font-size:16px;">Hardware Platform</text><g transform="matrix(16,0,0,16,351.015,488.09)"></g><text x="236.351px" y="488.09px" style="font-family:'Tahoma-Bold', 'Tahoma';font-weight:700;font-size:16px;">Attested Node</text><g transform="matrix(16,0,0,16,493.89,46.0899)"></g><text x="373.078px" y="46.09px" style="font-family:'Tahoma-Bold', 'Tahoma';font-weight:700;font-size:16px;">Registrar Node</text><g transform="matrix(16,0,0,16,565.979,46.1344)"></g><g transform="matrix(16,0,0,16,572.035,46.1344)"></g><g transform="matrix(16,0,0,16,639.713,46.1344)"></g><text x="533.916px" y="46.134px" style="font-family:'Tahoma-Bold', 'Tahoma';font-weight:700;font-size:16px;">Veriﬁer Node</text><g transform="matrix(14,0,0,14,393.39,438.516)"></g><text x="190.677px" y="438.516px" style="font-family:'Tahoma';font-size:14px;">motherboard, CPU<tspan x="304.14px 308.378px " y="438.516px 438.516px ">, </tspan>memory<tspan x="362.027px 366.265px " y="438.516px 438.516px ">, </tspan>etc.</text><rect x="143.126" y="371.96" width="298.042" height="29.103" style="fill:#ebebeb;stroke:#000;stroke-width:1.5px;"/><g transform="matrix(16,0,0,16,333.094,392.453)"></g><text x="250.844px" y="392.453px" style="font-family:'Tahoma-Bold', 'Tahoma';font-weight:700;font-size:16px;">Microcode</text><rect x="367.068" y="137.987" width="114.076" height="29.103" style="fill:#ebebeb;stroke:#000;stroke-width:1.5px;"/><g transform="matrix(16,0,0,16,449.974,158.48)"></g><text x="397.826px" y="158.48px" style="font-family:'Tahoma-Bold', 'Tahoma';font-weight:700;font-size:16px;">Kernel</text><rect x="367.296" y="167.09" width="114.076" height="29.103" style="fill:#969696;stroke:#000;stroke-width:1.5px;"/><g transform="matrix(16,0,0,16,459.099,187.583)"></g><text x="389.342px" y="187.583px" style="font-family:'Tahoma-Bold', 'Tahoma';font-weight:700;font-size:16px;">Platform</text><rect x="143.126" y="342.857" width="83.564" height="29.103" style="fill:#ebebeb;stroke:#000;stroke-width:1.5px;"/><g transform="matrix(16,0,0,16,204.104,363.35)"></g><text x="165.408px" y="363.35px" style="font-family:'Tahoma-Bold', 'Tahoma';font-weight:700;font-size:16px;">UEFI</text><rect x="226.69" y="342.857" width="105.391" height="29.103" style="fill:#ebebeb;stroke:#000;stroke-width:1.5px;"/><g transform="matrix(16,0,0,16,322.867,363.35)"></g><text x="234.702px" y="363.35px" style="font-family:'Tahoma-Bold', 'Tahoma';font-weight:700;font-size:16px;">Bootloader</text><rect x="331.592" y="316.987" width="109.576" height="54.973" style="fill:#ebebeb;stroke:#000;stroke-width:1.5px;"/><g transform="matrix(16,0,0,16,412.808,363.35)"></g><text x="360.66px" y="363.35px" style="font-family:'Tahoma-Bold', 'Tahoma';font-weight:700;font-size:16px;">Kernel</text><rect x="331.734" y="253.348" width="109.433" height="63.639" style="fill:#ebebeb;stroke:#000;stroke-width:1.5px;"/><rect x="429.592" y="281.58" width="13.333" height="29.601" style="fill:#ebebeb;"/><g transform="matrix(16,0,0,16,430.326,273.619)"></g><text x="341.428px" y="273.619px" style="font-family:'Tahoma-Bold', 'Tahoma';font-weight:700;font-size:16px;">User Space</text><rect x="367.068" y="74.348" width="114.076" height="63.639" style="fill:#ebebeb;stroke:#000;stroke-width:1.5px;"/><g transform="matrix(16,0,0,16,467.682,95.3613)"></g><text x="378.784px" y="95.361px" style="font-family:'Tahoma-Bold', 'Tahoma';font-weight:700;font-size:16px;">User Space</text><rect x="390.983" y="326.772" width="39.91" height="15.36" style="fill:#ebebeb;stroke:#000;stroke-width:1.5px;"/><g transform="matrix(14,0,0,14,425.534,339.181)"></g><text x="396.68px" y="339.181px" style="font-family:'Tahoma-Bold', 'Tahoma';font-weight:700;font-size:14px;">IMA</text><rect x="339.416" y="282.501" width="39.91" height="23.773" style="fill:#ebebeb;stroke:#000;stroke-width:1.5px;"/><g transform="matrix(14,0,0,14,375.591,299.337)"></g><text x="343.489px" y="299.337px" style="font-family:'Tahoma-Bold', 'Tahoma';font-weight:700;font-size:14px;">Files</text><rect x="385.898" y="282.501" width="47.994" height="23.8" style="fill:#b9d2dc;stroke:#000;stroke-width:1.5px;"/><g transform="matrix(14,0,0,14,430.807,298.886)"></g><text x="389.32px" y="298.886px" style="font-family:'Tahoma-Bold', 'Tahoma';font-weight:700;font-size:14px;">Agent</text><rect x="376.337" y="106.834" width="95.661" height="23.337" style="fill:#b9d2dc;stroke:#000;stroke-width:1.5px;"/><g transform="matrix(14,0,0,14,456.532,123.22)"></g><text x="391.474px" y="123.22px" style="font-family:'Tahoma-Bold', 'Tahoma';font-weight:700;font-size:14px;">Registrar</text><rect x="509.279" y="63.133" width="134.587" height="143.727" style="fill:#fff;stroke:#47a27a;stroke-width:2.5px;"/><rect x="519.734" y="137.987" width="114.076" height="29.103" style="fill:#ebebeb;stroke:#000;stroke-width:1.5px;"/><g transform="matrix(16,0,0,16,602.641,158.48)"></g><text x="550.492px" y="158.48px" style="font-family:'Tahoma-Bold', 'Tahoma';font-weight:700;font-size:16px;">Kernel</text><rect x="519.962" y="167.09" width="114.076" height="29.103" style="fill:#969696;stroke:#000;stroke-width:1.5px;"/><g transform="matrix(16,0,0,16,611.766,187.583)"></g><text x="542.008px" y="187.583px" style="font-family:'Tahoma-Bold', 'Tahoma';font-weight:700;font-size:16px;">Platform</text><rect x="519.734" y="74.348" width="114.076" height="63.639" style="fill:#ebebeb;stroke:#000;stroke-width:1.5px;"/><g transform="matrix(16,0,0,16,620.349,95.3613)"></g><text x="531.45px" y="95.361px" style="font-family:'Tahoma-Bold', 'Tahoma';font-weight:700;font-size:16px;">User Space</text><rect x="535.171" y="106.834" width="83.328" height="23.337" style="fill:#b9d2dc;stroke:#000;stroke-width:1.5px;"/><g transform="matrix(14,0,0,14,578.765,123.22)"></g><g transform="matrix(14,0,0,14,584.064,123.22)"></g><g transform="matrix(14,0,0,14,602.629,123.22)"></g><text x="550.71px" y="123.22px" style="font-family:'Tahoma-Bold', 'Tahoma';font-weight:700;font-size:14px;">Veriﬁer</text><rect x="459.233" y="397.6" width="82.6" height="53" style="fill:none;stroke:#47a27a;stroke-width:2.5px;"/><rect x="462.249" y="400.6" width="76.587" height="47.041" style="fill:#969696;stroke:#000;stroke-width:1.5px;"/><g transform="matrix(16,0,0,16,509.205,429.986)"></g><text x="474.603px" y="429.986px" style="font-family:'Tahoma-Bold', 'Tahoma';font-weight:700;font-size:16px;">TPM</text><rect x="44.583" y="397.649" width="82.6" height="53" style="fill:none;stroke:#47a27a;stroke-width:2.5px;"/><rect x="140.083" y="397.6" width="304.1" height="53" style="fill:none;stroke:#47a27a;stroke-width:2.5px;"/><rect x="47.583" y="400.649" width="76.587" height="47.041" style="fill:#969696;stroke:#000;stroke-width:1.5px;"/><g transform="matrix(16,0,0,16,95.2099,429.51)"></g><text x="59.265px" y="429.51px" style="font-family:'Tahoma-Bold', 'Tahoma';font-weight:700;font-size:16px;">BMC</text><path d="M239.775,341.971l-1.418,8.264l-5.761,-6.093l7.179,-2.171Z" style="fill:#47a27a;"/><path d="M199.024,346.902c3.433,-15.956 29.814,-19.429 37.596,-2.41" style="fill:none;stroke:#47a27a;stroke-width:2px;"/><g transform="matrix(1,0,0,1,-116.342,68.6662)"><g transform="matrix(0.631546,-0.775338,0.775338,0.631546,-94.9381,342.529)"><text x="312.923px" y="271.154px" style="font-family:'Tahoma';font-size:13px;fill:#5fbc93;">m</text></g><g transform="matrix(0.890722,-0.454548,0.454548,0.890722,-84.6908,174.186)"><text x="319.924px" y="263.231px" style="font-family:'Tahoma';font-size:13px;fill:#5fbc93;">e</text></g><g transform="matrix(0.976038,-0.217598,0.217598,0.976038,-48.8327,77.1066)"><text x="325.691px" y="260.282px" style="font-family:'Tahoma';font-size:13px;fill:#5fbc93;">a</text></g><g transform="matrix(0.999738,0.0228945,-0.0228945,0.999738,6.01462,-7.53295)"><text x="331.993px" y="258.91px" style="font-family:'Tahoma';font-size:13px;fill:#5fbc93;">s</text></g><g transform="matrix(0.96456,0.263864,-0.263864,0.96456,80.2721,-79.8715)"><text x="337.471px" y="258.891px" style="font-family:'Tahoma';font-size:13px;fill:#5fbc93;">u</text></g><g transform="matrix(0.864867,0.502002,-0.502002,0.864867,177.407,-137.5)"><text x="344.101px" y="260.771px" style="font-family:'Tahoma';font-size:13px;fill:#5fbc93;">r</text></g><g transform="matrix(0.737037,0.675853,-0.675853,0.737037,269.047,-166.032)"><text x="347.886px" y="262.728px" style="font-family:'Tahoma';font-size:13px;fill:#5fbc93;">e</text></g><g transform="matrix(0.547226,0.836985,-0.836985,0.547226,383.247,-174.215)"><text x="352.648px" y="267.122px" style="font-family:'Tahoma';font-size:13px;fill:#5fbc93;">s</text></g></g><rect x="330.592" y="319.556" width="13.333" height="17.625" style="fill:#ebebeb;"/><g transform="matrix(1,0,0,1,-12.342,68.5835)"><g transform="matrix(0.643555,-0.7654,0.7654,0.643555,-95.9982,336.135)"><text x="312.895px" y="271.137px" style="font-family:'Tahoma';font-size:13px;fill:#5fbc93;">m</text></g><g transform="matrix(0.89466,-0.446747,0.446747,0.89466,-83.9306,170.713)"><text x="320.034px" y="263.332px" style="font-family:'Tahoma';font-size:13px;fill:#5fbc93;">e</text></g><g transform="matrix(0.973991,-0.226586,0.226586,0.973991,-50.5362,80.6035)"><text x="325.836px" y="260.434px" style="font-family:'Tahoma';font-size:13px;fill:#5fbc93;">a</text></g><g transform="matrix(0.999942,-0.0107269,0.0107269,0.999942,-2.75921,3.57743)"><text x="332.112px" y="259.005px" style="font-family:'Tahoma';font-size:13px;fill:#5fbc93;">s</text></g><g transform="matrix(0.978622,0.205667,-0.205667,0.978622,60.4465,-63.895)"><text x="337.575px" y="258.816px" style="font-family:'Tahoma';font-size:13px;fill:#5fbc93;">u</text></g><g transform="matrix(0.903625,0.428325,-0.428325,0.903625,144.665,-122.382)"><text x="344.287px" y="260.279px" style="font-family:'Tahoma';font-size:13px;fill:#5fbc93;">r</text></g><g transform="matrix(0.795679,0.605718,-0.605718,0.795679,229.8,-157.411)"><text x="348.226px" y="261.921px" style="font-family:'Tahoma';font-size:13px;fill:#5fbc93;">e</text></g><g transform="matrix(0.615353,0.788251,-0.788251,0.615353,345.491,-176.291)"><text x="353.381px" y="265.86px" style="font-family:'Tahoma';font-size:13px;fill:#5fbc93;">s</text></g></g><path d="M343.807,339.705l-0.549,8.368l-6.364,-5.46l6.913,-2.908Z" style="fill:#47a27a;"/><path d="M303.925,346.739c0.405,-15.396 27.22,-21.005 37.007,-4.197" style="fill:none;stroke:#47a27a;stroke-width:2px;"/><rect x="346.714" y="312.154" width="19.346" height="12.667" style="fill:#ebebeb;"/><g transform="matrix(1,0,0,1,-96.1667,85.5979)"><g transform="matrix(0.286788,0.957994,-0.957994,0.286788,533.885,-263.041)"><text x="443.602px" y="227.039px" style="font-family:'Tahoma';font-size:13px;fill:#5fbc93;">m</text></g><g transform="matrix(0.472189,0.881498,-0.881498,0.472189,445.457,-268.573)"><text x="447px" y="237.692px" style="font-family:'Tahoma';font-size:13px;fill:#5fbc93;">e</text></g><g transform="matrix(0.61566,0.788012,-0.788012,0.61566,365.352,-261.156)"><text x="450.4px" y="243.963px" style="font-family:'Tahoma';font-size:13px;fill:#5fbc93;">a</text></g><g transform="matrix(0.74543,0.666584,-0.666584,0.74543,282.096,-239.666)"><text x="454.827px" y="249.497px" style="font-family:'Tahoma';font-size:13px;fill:#5fbc93;">s</text></g><g transform="matrix(0.846039,0.53312,-0.53312,0.846039,205.904,-205.837)"><text x="459.328px" y="253.573px" style="font-family:'Tahoma';font-size:13px;fill:#5fbc93;">u</text></g><g transform="matrix(0.918158,0.396213,-0.396213,0.918158,140.146,-163.466)"><text x="465.761px" y="257.507px" style="font-family:'Tahoma';font-size:13px;fill:#5fbc93;">r</text></g><g transform="matrix(0.958328,0.28567,-0.28567,0.958328,93.7284,-123.513)"><text x="470.217px" y="259.508px" style="font-family:'Tahoma';font-size:13px;fill:#5fbc93;">e</text></g><g transform="matrix(0.987076,0.160252,-0.160252,0.987076,48.0697,-73.0677)"><text x="477.044px" y="261.491px" style="font-family:'Tahoma';font-size:13px;fill:#5fbc93;">s</text></g></g><path d="M357.215,316.498l2.814,-7.899l4.631,6.991l-7.445,0.908Z" style="fill:#47a27a;"/><path d="M384.983,334.452c0,0 -20.079,-1.398 -24.227,-19.897" style="fill:none;stroke:#47a27a;stroke-width:2px;"/><path d="M111.556,393.507l5.085,1.894l-6.842,4.489l-6.341,-0.548l8.098,-5.835Z" style="fill:#fff;"/><path d="M145.043,383.301l7.498,3.754l-7.502,3.746l0.004,-7.5Z" style="fill:#5fbc93;"/><path d="M99.041,407.055c12.323,-13.556 24.077,-19.565 47.5,-20.003" style="fill:none;stroke:#5fbc93;stroke-width:2px;"/><path d="M442.807,306.813l-6.016,-5.841l8.282,-1.308l-2.266,7.149Z"/><path d="M500.543,407.639c-0,-0 1.487,-83.41 -58.033,-104.854" style="fill:none;stroke:#000;stroke-width:2px;"/><g transform="matrix(0.989055,0.147545,-0.147545,0.989055,-29.428,-82.7242)"><g transform="matrix(0.810508,0.585727,-0.585727,0.810508,291.162,-267.74)"><text x="559.379px" y="316.127px" style="font-family:'Tahoma';font-size:14px;">q</text></g><g transform="matrix(0.741876,0.670537,-0.670537,0.741876,361.029,-296.511)"><text x="565.642px" y="320.673px" style="font-family:'Tahoma';font-size:14px;">u</text></g><g transform="matrix(0.671192,0.741284,-0.741284,0.671192,429.48,-316.423)"><text x="571.421px" y="325.91px" style="font-family:'Tahoma';font-size:14px;">o</text></g><g transform="matrix(0.613448,0.789735,-0.789735,0.613448,484.705,-327.095)"><text x="576.484px" y="331.585px" style="font-family:'Tahoma';font-size:14px;">t</text></g><g transform="matrix(0.558511,0.829497,-0.829497,0.558511,533.892,-332.594)"><text x="579.395px" y="335.258px" style="font-family:'Tahoma';font-size:14px;">e</text></g></g><g transform="matrix(1,0,0,1,-104.012,69.9167)"><g transform="matrix(0.85063,-0.525765,0.525765,0.85063,-137.424,160.266)"><text x="213.346px" y="321.991px" style="font-family:'Tahoma';font-size:13px;fill:#5fbc93;">l</text></g><g transform="matrix(0.901593,-0.432585,0.432585,0.901593,-117.329,124.888)"><text x="215.832px" y="320.326px" style="font-family:'Tahoma';font-size:13px;fill:#5fbc93;">o</text></g><g transform="matrix(0.952078,-0.305856,0.305856,0.952078,-86.4,83.1693)"><text x="222.208px" y="317.302px" style="font-family:'Tahoma';font-size:13px;fill:#5fbc93;">a</text></g><g transform="matrix(0.981568,-0.191115,0.191115,0.981568,-56.0324,49.5221)"><text x="228.718px" y="315.246px" style="font-family:'Tahoma';font-size:13px;fill:#5fbc93;">d</text></g><g transform="matrix(0.99457,-0.104071,0.104071,0.99457,-31.3901,26.243)"><text x="235.785px" y="313.924px" style="font-family:'Tahoma';font-size:13px;fill:#5fbc93;">s</text></g></g><path d="M84.828,392.612l4.185,1.605l-2.685,5.33l-4.991,-0.021l3.491,-6.914Z" style="fill:#fff;"/><path d="M144.887,353.984l7.654,3.424l-7.332,4.069l-0.322,-7.493Z" style="fill:#5fbc93;"/><path d="M81.67,406.511c7.111,-27.861 36.954,-46.47 64.876,-48.845" style="fill:none;stroke:#5fbc93;stroke-width:2px;"/><g transform="matrix(1,0,0,1,-134.013,69.5006)"><g transform="matrix(0.788398,-0.615165,0.615165,0.788398,-136.534,207.029)"><text x="232.669px" y="301.979px" style="font-family:'Tahoma';font-size:13px;fill:#5fbc93;">l</text></g><g transform="matrix(0.82689,-0.562364,0.562364,0.82689,-128.09,184.088)"><text x="234.968px" y="300.101px" style="font-family:'Tahoma';font-size:13px;fill:#5fbc93;">o</text></g><g transform="matrix(0.871007,-0.49127,0.49127,0.871007,-114.425,156.504)"><text x="240.811px" y="296.147px" style="font-family:'Tahoma';font-size:13px;fill:#5fbc93;">a</text></g><g transform="matrix(0.909139,-0.416492,0.416492,0.909139,-99.5292,129.38)"><text x="246.765px" y="292.804px" style="font-family:'Tahoma';font-size:13px;fill:#5fbc93;">d</text></g><g transform="matrix(0.93979,-0.341752,0.341752,0.93979,-83.8021,104.022)"><text x="253.314px" y="289.842px" style="font-family:'Tahoma';font-size:13px;fill:#5fbc93;">s</text></g></g><path d="M382.317,114.381l6.962,4.674l-7.916,2.765l0.954,-7.439Z"/><path d="M436.791,285.168c-0,-0 33.16,-0.201 31.878,-34.106c-0.603,-15.927 -12.303,-29.604 -34.777,-31.257c-27.916,-2.053 -70.932,13.479 -100.351,-3.75c-25.983,-15.216 -38.554,-52.943 -15,-80c17.5,-20.102 51.155,-19.113 64.787,-17.763" style="fill:none;stroke:#000;stroke-width:2px;"/><g transform="matrix(1,0,0,1,-99.5,-0.333333)"><g transform="matrix(-0.0633852,-0.997989,0.997989,-0.0633852,233.048,589.913)"><text x="393.342px" y="185.599px" style="font-family:'Tahoma';font-size:14px;">p</text></g><g transform="matrix(-0.0171432,-0.999853,0.999853,-0.0171432,221.784,573.763)"><text x="392.897px" y="177.875px" style="font-family:'Tahoma';font-size:14px;">l</text></g><g transform="matrix(0.0289262,-0.999582,0.999582,0.0289262,206.851,562.242)"><text x="392.799px" y="174.659px" style="font-family:'Tahoma';font-size:14px;">a</text></g><g transform="matrix(0.0898372,-0.995956,0.995956,0.0898372,191.114,543.744)"><text x="393.056px" y="167.308px" style="font-family:'Tahoma';font-size:14px;">t</text></g><g transform="matrix(0.140635,-0.990061,0.990061,0.140635,177.082,529.342)"><text x="393.464px" y="162.664px" style="font-family:'Tahoma';font-size:14px;">f</text></g><g transform="matrix(0.207272,-0.978283,0.978283,0.207272,157.422,510.977)"><text x="394.002px" y="158.354px" style="font-family:'Tahoma';font-size:14px;">o</text></g><g transform="matrix(0.325474,-0.945551,0.945551,0.325474,124.135,475.847)"><text x="395.589px" y="150.917px" style="font-family:'Tahoma';font-size:14px;">r</text></g><g transform="matrix(0.476615,-0.879112,0.879112,0.476615,79.4034,425.384)"><text x="396.953px" y="146.006px" style="font-family:'Tahoma';font-size:14px;">m</text></g><g transform="matrix(0.668469,-0.74374,0.74374,0.668469,35.9802,345.475)"><text x="405.501px" y="132.38px" style="font-family:'Tahoma';font-size:14px;">i</text></g><g transform="matrix(0.739702,-0.672935,0.672935,0.739702,18.6655,308.093)"><text x="407.58px" y="129.919px" style="font-family:'Tahoma';font-size:14px;">d</text></g><g transform="matrix(0.829135,-0.559048,0.559048,0.829135,0.889162,252.385)"><text x="413.33px" y="124.738px" style="font-family:'Tahoma';font-size:14px;">e</text></g><g transform="matrix(0.895598,-0.444865,0.444865,0.895598,-9.85547,199.193)"><text x="419.459px" y="120.594px" style="font-family:'Tahoma';font-size:14px;">n</text></g><g transform="matrix(0.935879,-0.352321,0.352321,0.935879,-13.9421,157.775)"><text x="426.487px" y="117.191px" style="font-family:'Tahoma';font-size:14px;">t</text></g><g transform="matrix(0.954833,-0.297144,0.297144,0.954833,-14.8772,133.251)"><text x="430.872px" y="115.562px" style="font-family:'Tahoma';font-size:14px;">i</text></g><g transform="matrix(0.970304,-0.241888,0.241888,0.970304,-14.8298,108.37)"><text x="433.947px" y="114.583px" style="font-family:'Tahoma';font-size:14px;">t</text></g><g transform="matrix(0.985652,-0.168791,0.168791,0.985652,-12.8571,75.619)"><text x="438.361px" y="113.435px" style="font-family:'Tahoma';font-size:14px;">y</text></g></g><g transform="matrix(-0.636156,0.771561,-0.771561,-0.636156,1055.42,-68.9516)"><g transform="matrix(0.0278879,-0.999611,0.999611,0.0278879,205.035,565.434)"><text x="393.232px" y="177.3px" style="font-family:'Tahoma';font-size:14px;">e</text></g><g transform="matrix(0.139303,-0.99025,0.99025,0.139303,170.366,535.864)"><text x="393.444px" y="169.927px" style="font-family:'Tahoma';font-size:14px;">v</text></g><g transform="matrix(0.220757,-0.975329,0.975329,0.220757,148.384,511.807)"><text x="394.49px" y="163.042px" style="font-family:'Tahoma';font-size:14px;">i</text></g><g transform="matrix(0.30511,-0.952317,0.952317,0.30511,122.306,487.375)"><text x="395.116px" y="159.88px" style="font-family:'Tahoma';font-size:14px;">d</text></g><g transform="matrix(0.429053,-0.903279,0.903279,0.429053,89.1852,446.138)"><text x="397.503px" y="152.52px" style="font-family:'Tahoma';font-size:14px;">e</text></g><g transform="matrix(0.541939,-0.840418,0.840418,0.541939,60.9596,403.526)"><text x="400.66px" y="145.841px" style="font-family:'Tahoma';font-size:14px;">n</text></g><g transform="matrix(0.63769,-0.770293,0.770293,0.63769,39.4149,362.38)"><text x="404.928px" y="139.291px" style="font-family:'Tahoma';font-size:14px;">c</text></g><g transform="matrix(0.716447,-0.697642,0.697642,0.716447,22.2815,323.432)"><text x="409.02px" y="134.306px" style="font-family:'Tahoma';font-size:14px;">e</text></g></g><path d="M615.107,120.801l-8.064,-2.298l6.677,-5.072l1.387,7.37Z"/><path d="M437.043,293.555c113,5.931 174.303,3.461 217,-40.207c29.417,-30.087 37.298,-81.616 17.5,-113.293c-16.013,-25.62 -45.943,-24.475 -58.604,-22.662" style="fill:none;stroke:#000;stroke-width:2px;"/></g><path d="M107.038,432.032c-5.022,-1.328 -5.861,-7.392 -5.861,-7.392c-0.058,-0.436 0.249,-0.836 0.684,-0.894c0.435,-0.057 0.835,0.249 0.893,0.685c-0,-0 0.548,3.233 3.961,4.299l0.377,-5.534l-1.661,0c-0.39,0 -0.707,-0.316 -0.707,-0.706c0,-0.39 0.317,-0.707 0.707,-0.707l1.757,0l0.144,-2.102c-0.762,-0.527 -1.262,-1.408 -1.262,-2.404c0,-1.612 1.309,-2.92 2.921,-2.92c1.612,-0 2.921,1.308 2.921,2.92c-0,0.996 -0.5,1.876 -1.261,2.404l0.143,2.102l1.757,0c0.39,0 0.707,0.317 0.707,0.707c-0,0.39 -0.317,0.706 -0.707,0.706l-1.661,0l0.381,5.585c3.514,-1.005 3.954,-4.329 3.954,-4.329c0.046,-0.437 0.438,-0.754 0.875,-0.708c0.436,0.046 0.753,0.438 0.708,0.874c-0,0 -0.698,6.284 -5.927,7.475l-1.89,1.908l-1.953,-1.969Z" style="fill:#5fbc93;stroke:#222;stroke-width:1.25px;"/><path d="M404.038,432.075c-5.022,-1.327 -5.861,-7.392 -5.861,-7.392c-0.058,-0.435 0.249,-0.835 0.684,-0.893c0.435,-0.058 0.835,0.249 0.893,0.684c-0,0 0.548,3.234 3.961,4.299l0.377,-5.533l-1.661,-0c-0.39,-0 -0.707,-0.317 -0.707,-0.707c0,-0.39 0.317,-0.706 0.707,-0.706l1.757,-0l0.144,-2.103c-0.762,-0.527 -1.262,-1.407 -1.262,-2.403c0,-1.612 1.309,-2.921 2.921,-2.921c1.612,0 2.921,1.309 2.921,2.921c-0,0.996 -0.5,1.876 -1.261,2.403l0.143,2.103l1.757,-0c0.39,-0 0.707,0.316 0.707,0.706c-0,0.39 -0.317,0.707 -0.707,0.707l-1.661,-0l0.381,5.584c3.514,-1.005 3.954,-4.329 3.954,-4.329c0.046,-0.436 0.438,-0.753 0.875,-0.708c0.436,0.046 0.753,0.438 0.708,0.875c-0,-0 -0.698,6.284 -5.927,7.474l-1.89,1.909l-1.953,-1.97Z" style="fill:#5fbc93;stroke:#222;stroke-width:1.25px;"/><path d="M356.839,48.032c-5.022,-1.328 -5.862,-7.392 -5.862,-7.392c-0.057,-0.436 0.249,-0.836 0.684,-0.894c0.436,-0.057 0.836,0.249 0.893,0.685c0,-0 0.548,3.233 3.961,4.299l0.378,-5.534l-1.662,0c-0.39,0 -0.706,-0.316 -0.706,-0.706c-0,-0.39 0.316,-0.707 0.706,-0.707l1.758,0l0.143,-2.102c-0.762,-0.527 -1.261,-1.408 -1.261,-2.404c-0,-1.612 1.308,-2.92 2.92,-2.92c1.612,-0 2.921,1.308 2.921,2.92c0,0.996 -0.499,1.876 -1.261,2.404l0.143,2.102l1.758,0c0.39,0 0.706,0.317 0.706,0.707c0,0.39 -0.316,0.706 -0.706,0.706l-1.661,0l0.38,5.585c3.514,-1.005 3.955,-4.329 3.955,-4.329c0.046,-0.437 0.437,-0.754 0.874,-0.708c0.437,0.046 0.754,0.438 0.708,0.874c0,0 -0.698,6.284 -5.926,7.475l-1.891,1.908l-1.952,-1.969Z" style="fill:#5fbc93;stroke:#222;stroke-width:1.25px;"/><path d="M518.172,48.075c-5.022,-1.327 -5.861,-7.392 -5.861,-7.392c-0.058,-0.435 0.249,-0.835 0.684,-0.893c0.435,-0.058 0.835,0.249 0.893,0.684c-0,0 0.547,3.234 3.961,4.299l0.377,-5.533l-1.662,-0c-0.389,-0 -0.706,-0.317 -0.706,-0.707c0,-0.39 0.317,-0.706 0.706,-0.706l1.758,-0l0.144,-2.103c-0.762,-0.527 -1.262,-1.407 -1.262,-2.403c-0,-1.612 1.309,-2.921 2.921,-2.921c1.612,0 2.921,1.309 2.921,2.921c-0,0.996 -0.5,1.876 -1.262,2.403l0.144,2.103l1.757,-0c0.39,-0 0.706,0.316 0.706,0.706c0,0.39 -0.316,0.707 -0.706,0.707l-1.661,-0l0.381,5.584c3.514,-1.005 3.954,-4.329 3.954,-4.329c0.046,-0.436 0.438,-0.753 0.874,-0.708c0.437,0.046 0.754,0.438 0.708,0.875c0,-0 -0.697,6.284 -5.926,7.474l-1.89,1.909l-1.953,-1.97Z" style="fill:#5fbc93;stroke:#222;stroke-width:1.25px;"/><path d="M519.063,432.032c-5.022,-1.328 -5.862,-7.392 -5.862,-7.392c-0.057,-0.436 0.249,-0.836 0.685,-0.894c0.435,-0.057 0.835,0.249 0.893,0.685c-0,-0 0.547,3.233 3.96,4.299l0.378,-5.534l-1.662,0c-0.39,0 -0.706,-0.316 -0.706,-0.706c-0,-0.39 0.316,-0.707 0.706,-0.707l1.758,0l0.143,-2.102c-0.762,-0.527 -1.261,-1.408 -1.261,-2.404c-0,-1.612 1.308,-2.92 2.921,-2.92c1.612,-0 2.92,1.308 2.92,2.92c0,0.996 -0.499,1.876 -1.261,2.404l0.143,2.102l1.758,0c0.39,0 0.706,0.317 0.706,0.707c0,0.39 -0.316,0.706 -0.706,0.706l-1.661,0l0.38,5.585c3.514,-1.005 3.955,-4.329 3.955,-4.329c0.046,-0.437 0.438,-0.754 0.874,-0.708c0.437,0.046 0.754,0.438 0.708,0.874c0,0 -0.698,6.284 -5.926,7.475l-1.89,1.908l-1.953,-1.969Z" style="fill:#5fbc93;stroke:#222;stroke-width:1.25px;"/><rect x="79.309" y="62.738" width="15" height="15" style="fill:#969696;stroke:#000;stroke-width:1.5px;"/><rect x="79.309" y="86.738" width="15" height="15" style="fill:#ebebeb;stroke:#000;stroke-width:1.5px;"/><g transform="matrix(12,0,0,12,148.763,74.3216)"></g><text x="101.728px" y="74.322px" style="font-family:'Tahoma';font-size:12px;">H<tspan x="109.268px 115.003px 118.704px 124.773px 133.01px 138.745px 142.446px " y="74.322px 74.322px 74.322px 74.322px 74.322px 74.322px 74.322px ">ardware</tspan></text><g transform="matrix(12,0,0,12,144.521,98.3216)"></g><text x="101.728px" y="98.322px" style="font-family:'Tahoma';font-size:12px;">S<tspan x="107.873px 113.825px 117.081px 120.531px 128.768px 134.503px 138.204px " y="98.322px 98.322px 98.322px 98.322px 98.322px 98.322px 98.322px ">oftware</tspan></text><rect x="79.309" y="110.736" width="15" height="15" style="fill:#b9d2dc;stroke:#000;stroke-width:1.5px;"/><g transform="matrix(12,0,0,12,198.021,123.319)"></g><text x="101.728px" y="123.319px" style="font-family:'Tahoma';font-size:12px;">K<tspan x="107.885px 113.637px 119.05px 121.24px 123.418px 132.932px 138.685px 141.871px 148.514px 154.465px 163.979px 170.048px 176px 182.127px 187.88px 194.007px " y="123.319px 123.319px 123.319px 123.319px 123.319px 123.319px 123.319px 123.319px 123.319px 123.319px 123.319px 123.319px 123.319px 123.319px 123.319px 123.319px ">eylime Component</tspan></text><g transform="matrix(12,0,0,12,162.509,156.319)"></g><text x="101.728px" y="156.319px" style="font-family:'Tahoma';font-size:12px;">T<tspan x="107.059px 110.819px 116.947px 121.738px 125.188px 128.374px 135.005px 141.132px 146.105px 152.233px 158.185px " y="156.319px 156.319px 156.319px 156.319px 156.319px 156.319px 156.319px 156.319px 156.319px 156.319px 156.319px ">rust Anchor</tspan></text><g transform="matrix(12,0,0,12,186.142,179.319)"></g><text x="101.728px" y="179.319px" style="font-family:'Tahoma';font-size:12px;">T<tspan x="107.059px 110.819px 116.947px 121.738px 125.188px 128.374px 135.04px 140.793px 142.971px 148.706px 152.155px 154.333px 160.285px 166.412px 171.204px 177.331px 179.509px " y="179.319px 179.319px 179.319px 179.319px 179.319px 179.319px 179.319px 179.319px 179.319px 179.319px 179.319px 179.319px 179.319px 179.319px 179.319px 179.319px 179.319px ">rust Relationship</tspan></text><path d="M88.184,172.218l7.5,3.75l-7.5,3.75l-0,-7.5Z" style="fill:#47a27a;"/><path d="M80.015,175.968l9.669,-0" style="fill:none;stroke:#47a27a;stroke-width:2.5px;"/><path d="M84.891,159.319c-4.326,-1.143 -5.048,-6.367 -5.048,-6.367c-0.05,-0.374 0.214,-0.719 0.589,-0.769c0.375,-0.049 0.719,0.215 0.769,0.59c0,-0 0.472,2.785 3.411,3.702l0.325,-4.766l-1.431,0c-0.336,0 -0.608,-0.272 -0.608,-0.608c-0,-0.336 0.272,-0.609 0.608,-0.609l1.514,0l0.124,-1.81c-0.657,-0.454 -1.087,-1.212 -1.087,-2.07c0,-1.389 1.127,-2.516 2.516,-2.516c1.388,0 2.515,1.127 2.515,2.516c0,0.857 -0.43,1.615 -1.086,2.07l0.123,1.81l1.514,0c0.336,0 0.608,0.273 0.608,0.609c0,0.336 -0.272,0.608 -0.608,0.608l-1.431,0l0.328,4.81c3.027,-0.865 3.406,-3.728 3.406,-3.728c0.04,-0.376 0.377,-0.649 0.753,-0.61c0.376,0.04 0.649,0.377 0.61,0.753c-0,0 -0.601,5.412 -5.104,6.438l-1.628,1.643l-1.682,-1.696Z" style="fill:#5fbc93;stroke:#222;stroke-width:1px;"/></svg>