<?xml version="1.0" encoding="UTF-8" standalone="no"?><!DOCTYPE svg PUBLIC "-//W3C//DTD SVG 1.1//EN" "http://www.w3.org/Graphics/SVG/1.1/DTD/svg11.dtd"><svg width="100%" height="100%" viewBox="0 0 721 524" version="1.1" xmlns="http://www.w3.org/2000/svg" xmlns:xlink="http://www.w3.org/1999/xlink" xml:space="preserve" xmlns:serif="http://www.serif.com/" style="fill-rule:evenodd;clip-rule:evenodd;stroke-linecap:round;stroke-linejoin:round;stroke-miterlimit:1.5;"><rect id="Architecture-Diagram" serif:id="Architecture Diagram" x="0.333" y="0" width="720.284" height="523.972" style="fill:none;"/><g id="System-Architecture" serif:id="System Architecture"><rect x="36.687" y="237.292" width="512.587" height="224.375" style="fill:#fff;stroke:#000;stroke-width:1.5px;"/><rect x="356.112" y="63.133" width="134.587" height="143.727" style="fill:#fff;stroke:#47a27a;stroke-width:1.5px;"/><rect x="142.626" y="401.063" width="298.042" height="47.103" style="fill:#969696;stroke:#000;stroke-width:1.5px;"/><g transform="matrix(16,0,0,16,368.902,421.423)"></g><text x="215.394px" y="421.423px" style="font-family:'Tahoma-Bold', 'Tahoma';font-weight:700;font-size:16px;">Hardware Platform</text><g transform="matrix(16,0,0,16,350.515,488.09)"></g><text x="235.851px" y="488.09px" style="font-family:'Tahoma-Bold', 'Tahoma';font-weight:700;font-size:16px;">Attested Node</text><g transform="matrix(16,0,0,16,493.39,46.0899)"></g><text x="372.578px" y="46.09px" style="font-family:'Tahoma-Bold', 'Tahoma';font-weight:700;font-size:16px;">Registrar Node</text><g transform="matrix(16,0,0,16,565.479,46.1344)"></g><g transform="matrix(16,0,0,16,571.535,46.1344)"></g><g transform="matrix(16,0,0,16,639.213,46.1344)"></g><text x="533.416px" y="46.134px" style="font-family:'Tahoma-Bold', 'Tahoma';font-weight:700;font-size:16px;">Veriﬁer Node</text><g transform="matrix(14,0,0,14,392.89,438.516)"></g><text x="190.177px" y="438.516px" style="font-family:'Tahoma';font-size:14px;">motherboard, CPU<tspan x="303.64px 307.878px " y="438.516px 438.516px ">, </tspan>memory<tspan x="361.527px 365.765px " y="438.516px 438.516px ">, </tspan>etc.</text><rect x="142.626" y="371.96" width="298.042" height="29.103" style="fill:#ebebeb;stroke:#000;stroke-width:1.5px;"/><g transform="matrix(16,0,0,16,332.594,392.453)"></g><text x="250.344px" y="392.453px" style="font-family:'Tahoma-Bold', 'Tahoma';font-weight:700;font-size:16px;">Microcode</text><rect x="366.568" y="137.987" width="114.076" height="29.103" style="fill:#ebebeb;stroke:#000;stroke-width:1.5px;"/><g transform="matrix(16,0,0,16,449.474,158.48)"></g><text x="397.326px" y="158.48px" style="font-family:'Tahoma-Bold', 'Tahoma';font-weight:700;font-size:16px;">Kernel</text><rect x="366.796" y="167.09" width="114.076" height="29.103" style="fill:#969696;stroke:#000;stroke-width:1.5px;"/><g transform="matrix(16,0,0,16,458.599,187.583)"></g><text x="388.842px" y="187.583px" style="font-family:'Tahoma-Bold', 'Tahoma';font-weight:700;font-size:16px;">Platform</text><rect x="142.626" y="342.857" width="83.564" height="29.103" style="fill:#ebebeb;stroke:#000;stroke-width:1.5px;"/><g transform="matrix(16,0,0,16,203.603,363.35)"></g><text x="164.908px" y="363.35px" style="font-family:'Tahoma-Bold', 'Tahoma';font-weight:700;font-size:16px;">UEFI</text><rect x="226.19" y="342.857" width="105.391" height="29.103" style="fill:#ebebeb;stroke:#000;stroke-width:1.5px;"/><g transform="matrix(16,0,0,16,322.367,363.35)"></g><text x="234.202px" y="363.35px" style="font-family:'Tahoma-Bold', 'Tahoma';font-weight:700;font-size:16px;">Bootloader</text><rect x="331.092" y="316.987" width="109.576" height="54.973" style="fill:#ebebeb;stroke:#000;stroke-width:1.5px;"/><g transform="matrix(16,0,0,16,412.308,363.35)"></g><text x="360.16px" y="363.35px" style="font-family:'Tahoma-Bold', 'Tahoma';font-weight:700;font-size:16px;">Kernel</text><rect x="331.234" y="253.348" width="109.433" height="63.639" style="fill:#ebebeb;stroke:#000;stroke-width:1.5px;"/><rect x="429.092" y="281.58" width="13.333" height="29.601" style="fill:#ebebeb;"/><g transform="matrix(16,0,0,16,429.826,273.619)"></g><text x="340.928px" y="273.619px" style="font-family:'Tahoma-Bold', 'Tahoma';font-weight:700;font-size:16px;">User Space</text><rect x="366.568" y="74.348" width="114.076" height="63.639" style="fill:#ebebeb;stroke:#000;stroke-width:1.5px;"/><g transform="matrix(16,0,0,16,467.182,95.3613)"></g><text x="378.284px" y="95.361px" style="font-family:'Tahoma-Bold', 'Tahoma';font-weight:700;font-size:16px;">User Space</text><rect x="388.483" y="326.772" width="39.91" height="15.36" style="fill:#ebebeb;stroke:#000;stroke-width:1.5px;"/><g transform="matrix(14,0,0,14,423.034,339.181)"></g><text x="394.18px" y="339.181px" style="font-family:'Tahoma-Bold', 'Tahoma';font-weight:700;font-size:14px;">IMA</text><rect x="338.916" y="282.501" width="39.91" height="23.773" style="fill:#ebebeb;stroke:#000;stroke-width:1.5px;"/><g transform="matrix(14,0,0,14,375.091,299.337)"></g><text x="342.989px" y="299.337px" style="font-family:'Tahoma-Bold', 'Tahoma';font-weight:700;font-size:14px;">Files</text><rect x="385.398" y="282.501" width="47.994" height="23.8" style="fill:#b9d2dc;stroke:#000;stroke-width:1.5px;"/><g transform="matrix(14,0,0,14,430.307,298.886)"></g><text x="388.82px" y="298.886px" style="font-family:'Tahoma-Bold', 'Tahoma';font-weight:700;font-size:14px;">Agent</text><rect x="375.837" y="106.834" width="95.661" height="23.337" style="fill:#b9d2dc;stroke:#000;stroke-width:1.5px;"/><g transform="matrix(14,0,0,14,456.032,123.22)"></g><text x="390.974px" y="123.22px" style="font-family:'Tahoma-Bold', 'Tahoma';font-weight:700;font-size:14px;">Registrar</text><rect x="508.779" y="63.133" width="134.587" height="143.727" style="fill:#fff;stroke:#47a27a;stroke-width:1.5px;"/><rect x="519.234" y="137.987" width="114.076" height="29.103" style="fill:#ebebeb;stroke:#000;stroke-width:1.5px;"/><g transform="matrix(16,0,0,16,602.141,158.48)"></g><text x="549.992px" y="158.48px" style="font-family:'Tahoma-Bold', 'Tahoma';font-weight:700;font-size:16px;">Kernel</text><rect x="519.462" y="167.09" width="114.076" height="29.103" style="fill:#969696;stroke:#000;stroke-width:1.5px;"/><g transform="matrix(16,0,0,16,611.266,187.583)"></g><text x="541.508px" y="187.583px" style="font-family:'Tahoma-Bold', 'Tahoma';font-weight:700;font-size:16px;">Platform</text><rect x="519.234" y="74.348" width="114.076" height="63.639" style="fill:#ebebeb;stroke:#000;stroke-width:1.5px;"/><g transform="matrix(16,0,0,16,619.849,95.3613)"></g><text x="530.95px" y="95.361px" style="font-family:'Tahoma-Bold', 'Tahoma';font-weight:700;font-size:16px;">User Space</text><rect x="534.671" y="106.834" width="83.328" height="23.337" style="fill:#b9d2dc;stroke:#000;stroke-width:1.5px;"/><g transform="matrix(14,0,0,14,578.265,123.22)"></g><g transform="matrix(14,0,0,14,583.564,123.22)"></g><g transform="matrix(14,0,0,14,602.129,123.22)"></g><text x="550.21px" y="123.22px" style="font-family:'Tahoma-Bold', 'Tahoma';font-weight:700;font-size:14px;">Veriﬁer</text><rect x="458.733" y="397.6" width="82.6" height="53" style="fill:none;stroke:#47a27a;stroke-width:1.5px;"/><rect x="461.749" y="400.6" width="76.587" height="47.041" style="fill:#969696;stroke:#000;stroke-width:1.5px;"/><g transform="matrix(16,0,0,16,508.705,429.986)"></g><text x="474.103px" y="429.986px" style="font-family:'Tahoma-Bold', 'Tahoma';font-weight:700;font-size:16px;">TPM</text><rect x="44.083" y="397.649" width="82.6" height="53" style="fill:none;stroke:#47a27a;stroke-width:1.5px;"/><rect x="139.583" y="397.6" width="304.1" height="53" style="fill:none;stroke:#47a27a;stroke-width:1.5px;"/><rect x="47.083" y="400.649" width="76.587" height="47.041" style="fill:#969696;stroke:#000;stroke-width:1.5px;"/><g transform="matrix(16,0,0,16,94.7099,429.51)"></g><text x="58.765px" y="429.51px" style="font-family:'Tahoma-Bold', 'Tahoma';font-weight:700;font-size:16px;">BMC</text><path d="M239.126,344.076l-1.269,6.159l-4.167,-4.71l5.436,-1.449Z"/><path d="M198.524,346.902c3.524,-16.379 31.227,-19.604 38.174,-1.015" style="fill:none;stroke:#000;stroke-width:1.5px;"/><g transform="matrix(1,0,0,1,-116.842,68.6662)"><g transform="matrix(0.810263,-0.586067,0.586067,0.810263,-95.7654,236.035)"><text x="316.654px" y="265.919px" style="font-family:'Tahoma';font-size:10px;">m</text></g><g transform="matrix(0.942106,-0.335316,0.335316,0.942106,-68.9067,123.554)"><text x="323.352px" y="261.327px" style="font-family:'Tahoma';font-size:10px;">e</text></g><g transform="matrix(0.988266,-0.152743,0.152743,0.988266,-35.8102,53.1532)"><text x="328.044px" y="259.649px" style="font-family:'Tahoma';font-size:10px;">a</text></g><g transform="matrix(0.999445,0.0333147,-0.0333147,0.999445,8.8103,-10.9484)"><text x="332.949px" y="258.909px" style="font-family:'Tahoma';font-size:10px;">s</text></g><g transform="matrix(0.975995,0.217795,-0.217795,0.975995,64.4936,-67.209)"><text x="337.131px" y="258.962px" style="font-family:'Tahoma';font-size:10px;">u</text></g><g transform="matrix(0.915111,0.403201,-0.403201,0.915111,133.948,-115.925)"><text x="342.284px" y="260.149px" style="font-family:'Tahoma';font-size:10px;">r</text></g><g transform="matrix(0.835716,0.549163,-0.549163,0.835716,200.26,-146.706)"><text x="345.331px" y="261.356px" style="font-family:'Tahoma';font-size:10px;">e</text></g><g transform="matrix(0.708118,0.706094,-0.706094,0.708118,288.485,-169.688)"><text x="349.489px" y="264.095px" style="font-family:'Tahoma';font-size:10px;">s</text></g></g><rect x="330.092" y="321.821" width="13.333" height="15.36" style="fill:#ebebeb;"/><g transform="matrix(1,0,0,1,-11.842,68.5835)"><g transform="matrix(0.810263,-0.586067,0.586067,0.810263,-95.7654,236.035)"><text x="316.654px" y="265.919px" style="font-family:'Tahoma';font-size:10px;">m</text></g><g transform="matrix(0.942106,-0.335316,0.335316,0.942106,-68.9067,123.554)"><text x="323.352px" y="261.327px" style="font-family:'Tahoma';font-size:10px;">e</text></g><g transform="matrix(0.988266,-0.152743,0.152743,0.988266,-35.8102,53.1532)"><text x="328.044px" y="259.649px" style="font-family:'Tahoma';font-size:10px;">a</text></g><g transform="matrix(0.999445,0.0333147,-0.0333147,0.999445,8.8103,-10.9484)"><text x="332.949px" y="258.909px" style="font-family:'Tahoma';font-size:10px;">s</text></g><g transform="matrix(0.975995,0.217795,-0.217795,0.975995,64.4936,-67.209)"><text x="337.131px" y="258.962px" style="font-family:'Tahoma';font-size:10px;">u</text></g><g transform="matrix(0.915111,0.403201,-0.403201,0.915111,133.948,-115.925)"><text x="342.284px" y="260.149px" style="font-family:'Tahoma';font-size:10px;">r</text></g><g transform="matrix(0.835716,0.549163,-0.549163,0.835716,200.26,-146.706)"><text x="345.331px" y="261.356px" style="font-family:'Tahoma';font-size:10px;">e</text></g><g transform="matrix(0.708118,0.706094,-0.706094,0.708118,288.485,-169.688)"><text x="349.489px" y="264.095px" style="font-family:'Tahoma';font-size:10px;">s</text></g></g><path d="M344.369,341.813l-0.611,6.26l-4.64,-4.245l5.251,-2.015Z"/><path d="M304.425,346.739c0.416,-15.789 28.605,-21.284 37.722,-2.868" style="fill:none;stroke:#000;stroke-width:1.5px;"/><rect x="348.214" y="312.154" width="14.667" height="12.667" style="fill:#ebebeb;"/><g transform="matrix(1,0,0,1,-95.6667,82.5979)"><g transform="matrix(0.315817,0.94882,-0.94882,0.315817,526.611,-263.003)"><text x="445.671px" y="233.649px" style="font-family:'Tahoma';font-size:10px;">m</text></g><g transform="matrix(0.481514,0.876438,-0.876438,0.481514,444.457,-267.744)"><text x="448.523px" y="241.778px" style="font-family:'Tahoma';font-size:10px;">e</text></g><g transform="matrix(0.611659,0.791122,-0.791122,0.611659,370.269,-261.186)"><text x="451.176px" y="246.559px" style="font-family:'Tahoma';font-size:10px;">a</text></g><g transform="matrix(0.734178,0.678957,-0.678957,0.734178,291.142,-241.946)"><text x="454.558px" y="250.842px" style="font-family:'Tahoma';font-size:10px;">s</text></g><g transform="matrix(0.833452,0.552592,-0.552592,0.833452,216.654,-210.762)"><text x="457.972px" y="254.039px" style="font-family:'Tahoma';font-size:10px;">u</text></g><g transform="matrix(0.907471,0.420115,-0.420115,0.907471,150.865,-170.644)"><text x="462.824px" y="257.168px" style="font-family:'Tahoma';font-size:10px;">r</text></g><g transform="matrix(0.95091,0.309469,-0.309469,0.95091,102.979,-131.577)"><text x="466.225px" y="258.804px" style="font-family:'Tahoma';font-size:10px;">e</text></g><g transform="matrix(0.983646,0.180113,-0.180113,0.983646,54.6219,-80.6512)"><text x="471.431px" y="260.46px" style="font-family:'Tahoma';font-size:10px;">s</text></g></g><path d="M357.275,314.471l2.254,-5.872l3.345,5.326l-5.599,0.546Z"/><path d="M384.483,334.452c0,0 -21.136,-1.472 -24.517,-21.374" style="fill:none;stroke:#000;stroke-width:1.5px;"/><path d="M146.431,384.213l5.61,2.842l-5.64,2.783l0.03,-5.625Z"/><path d="M98.541,407.055c12.584,-13.842 24.574,-19.816 49,-20.024" style="fill:none;stroke:#000;stroke-width:1.5px;"/><path d="M442.307,306.813l-6.016,-5.841l8.282,-1.308l-2.266,7.149Z"/><path d="M500.043,407.639c-0,-0 1.487,-83.41 -58.033,-104.854" style="fill:none;stroke:#000;stroke-width:2px;"/><g transform="matrix(0.989055,0.147545,-0.147545,0.989055,-30.928,-81.7242)"><g transform="matrix(0.814717,0.579859,-0.579859,0.814717,286.959,-265.775)"><text x="559.361px" y="316.143px" style="font-family:'Tahoma';font-size:12px;">q</text></g><g transform="matrix(0.756575,0.653907,-0.653907,0.756575,346.731,-291.407)"><text x="564.765px" y="320.005px" style="font-family:'Tahoma';font-size:12px;">u</text></g><g transform="matrix(0.696694,0.717369,-0.717369,0.696694,405.531,-310.383)"><text x="569.819px" y="324.382px" style="font-family:'Tahoma';font-size:12px;">o</text></g><g transform="matrix(0.64724,0.762287,-0.762287,0.64724,453.466,-321.717)"><text x="574.335px" y="329.092px" style="font-family:'Tahoma';font-size:12px;">t</text></g><g transform="matrix(0.599746,0.800191,-0.800191,0.599746,496.687,-328.74)"><text x="576.953px" y="332.12px" style="font-family:'Tahoma';font-size:12px;">e</text></g></g><g transform="matrix(1,0,0,1,-104.512,69.9167)"><g transform="matrix(0.846779,-0.531945,0.531945,0.846779,-138.6,162.824)"><text x="213.343px" y="322.004px" style="font-family:'Tahoma';font-size:10px;">l</text></g><g transform="matrix(0.887118,-0.461543,0.461543,0.887118,-123.734,135.55)"><text x="215.245px" y="320.732px" style="font-family:'Tahoma';font-size:10px;">o</text></g><g transform="matrix(0.931904,-0.362704,0.362704,0.931904,-100.44,101.492)"><text x="220.074px" y="318.239px" style="font-family:'Tahoma';font-size:10px;">a</text></g><g transform="matrix(0.964235,-0.265049,0.265049,0.964235,-75.8009,70.9459)"><text x="224.984px" y="316.347px" style="font-family:'Tahoma';font-size:10px;">d</text></g><g transform="matrix(0.983181,-0.182636,0.182636,0.983181,-53.6412,47.3614)"><text x="230.32px" y="314.917px" style="font-family:'Tahoma';font-size:10px;">s</text></g></g><path d="M146.328,354.78l5.713,2.628l-5.531,2.994l-0.182,-5.622Z"/><path d="M81.17,406.511c7.239,-28.359 38.029,-47.133 66.373,-48.957" style="fill:none;stroke:#000;stroke-width:1.5px;"/><g transform="matrix(1,0,0,1,-134.513,69.5006)"><g transform="matrix(0.812779,-0.582573,0.582573,0.812779,-130.631,193.274)"><text x="235.388px" y="299.878px" style="font-family:'Tahoma';font-size:10px;">l</text></g><g transform="matrix(0.84044,-0.541905,0.541905,0.84044,-123.918,176.182)"><text x="237.219px" y="298.518px" style="font-family:'Tahoma';font-size:10px;">o</text></g><g transform="matrix(0.873411,-0.486983,0.486983,0.873411,-113.332,155.168)"><text x="241.798px" y="295.577px" style="font-family:'Tahoma';font-size:10px;">a</text></g><g transform="matrix(0.903049,-0.429538,0.429538,0.903049,-101.979,134.242)"><text x="246.388px" y="293.027px" style="font-family:'Tahoma';font-size:10px;">d</text></g><g transform="matrix(0.927975,-0.372642,0.372642,0.927975,-90.2129,114.61)"><text x="251.377px" y="290.676px" style="font-family:'Tahoma';font-size:10px;">s</text></g></g><path d="M381.817,114.381l6.962,4.674l-7.916,2.765l0.954,-7.439Z"/><path d="M436.291,285.168c-0,-0 33.16,-0.201 31.878,-34.106c-0.603,-15.927 -12.303,-29.604 -34.777,-31.257c-27.916,-2.053 -70.932,13.479 -100.351,-3.75c-25.983,-15.216 -38.554,-52.943 -15,-80c17.5,-20.102 51.155,-19.113 64.787,-17.763" style="fill:none;stroke:#000;stroke-width:2px;"/><g transform="matrix(1,0,0,1,-100,-0.333333)"><g transform="matrix(0.0138862,-0.999904,0.999904,0.0138862,210.198,567.248)"><text x="392.689px" y="177.055px" style="font-family:'Tahoma';font-size:12px;">p</text></g><g transform="matrix(0.0761794,-0.997094,0.997094,0.0761794,193.001,549.117)"><text x="392.836px" y="170.404px" style="font-family:'Tahoma';font-size:12px;">l</text></g><g transform="matrix(0.135755,-0.990742,0.990742,0.135755,173.523,534.271)"><text x="392.997px" y="167.675px" style="font-family:'Tahoma';font-size:12px;">a</text></g><g transform="matrix(0.210976,-0.977491,0.977491,0.210976,152.994,512.412)"><text x="393.901px" y="161.437px" style="font-family:'Tahoma';font-size:12px;">t</text></g><g transform="matrix(0.269253,-0.96307,0.96307,0.269253,136.765,495.261)"><text x="394.741px" y="157.508px" style="font-family:'Tahoma';font-size:12px;">f</text></g><g transform="matrix(0.336578,-0.941656,0.941656,0.336578,117.568,474.705)"><text x="395.68px" y="153.915px" style="font-family:'Tahoma';font-size:12px;">o</text></g><g transform="matrix(0.419182,-0.907902,0.907902,0.419182,96.9205,447.097)"><text x="397.898px" y="147.798px" style="font-family:'Tahoma';font-size:12px;">r</text></g><g transform="matrix(0.517704,-0.85556,0.85556,0.517704,69.6917,411.183)"><text x="399.551px" y="143.777px" style="font-family:'Tahoma';font-size:12px;">m</text></g><g transform="matrix(0.659656,-0.751567,0.751567,0.659656,39.1681,351.098)"><text x="407.242px" y="132.302px" style="font-family:'Tahoma';font-size:12px;">i</text></g><g transform="matrix(0.718227,-0.695809,0.695809,0.718227,24.6588,321.272)"><text x="409.004px" y="130.19px" style="font-family:'Tahoma';font-size:12px;">d</text></g><g transform="matrix(0.798336,-0.602213,0.602213,0.798336,7.81355,274.513)"><text x="413.784px" y="125.59px" style="font-family:'Tahoma';font-size:12px;">e</text></g><g transform="matrix(0.864046,-0.503413,0.503413,0.864046,-4.36398,227.395)"><text x="418.819px" y="121.777px" style="font-family:'Tahoma';font-size:12px;">n</text></g><g transform="matrix(0.90813,-0.418688,0.418688,0.90813,-10.5855,188.674)"><text x="424.639px" y="118.458px" style="font-family:'Tahoma';font-size:12px;">t</text></g><g transform="matrix(0.930488,-0.366323,0.366323,0.930488,-13.012,165.012)"><text x="428.293px" y="116.792px" style="font-family:'Tahoma';font-size:12px;">i</text></g><g transform="matrix(0.949921,-0.312491,0.312491,0.949921,-14.5956,140.44)"><text x="430.871px" y="115.758px" style="font-family:'Tahoma';font-size:12px;">t</text></g><g transform="matrix(0.970847,-0.239701,0.239701,0.970847,-14.7768,107.503)"><text x="434.563px" y="114.5px" style="font-family:'Tahoma';font-size:12px;">y</text></g></g><g transform="matrix(-0.636156,0.771561,-0.771561,-0.636156,1051.92,-68.9516)"><g transform="matrix(0.0198622,-0.999803,0.999803,0.0198622,208.183,566.961)"><text x="393.259px" y="177.301px" style="font-family:'Tahoma';font-size:12px;">e</text></g><g transform="matrix(0.114798,-0.993389,0.993389,0.114798,178.382,542.14)"><text x="393.39px" y="170.978px" style="font-family:'Tahoma';font-size:12px;">v</text></g><g transform="matrix(0.184288,-0.982872,0.982872,0.184288,159.279,522.012)"><text x="394.132px" y="165.046px" style="font-family:'Tahoma';font-size:12px;">i</text></g><g transform="matrix(0.256201,-0.966623,0.966623,0.256201,136.562,502.153)"><text x="394.575px" y="162.34px" style="font-family:'Tahoma';font-size:12px;">d</text></g><g transform="matrix(0.364185,-0.931327,0.931327,0.364185,106.753,468.221)"><text x="396.296px" y="155.926px" style="font-family:'Tahoma';font-size:12px;">e</text></g><g transform="matrix(0.465353,-0.885125,0.885125,0.465353,80.3036,433.014)"><text x="398.586px" y="150.035px" style="font-family:'Tahoma';font-size:12px;">n</text></g><g transform="matrix(0.554989,-0.831858,0.831858,0.554989,58.8833,398.313)"><text x="401.725px" y="144.121px" style="font-family:'Tahoma';font-size:12px;">c</text></g><g transform="matrix(0.632634,-0.774451,0.774451,0.632634,40.6576,364.73)"><text x="404.776px" y="139.509px" style="font-family:'Tahoma';font-size:12px;">e</text></g></g><path d="M614.607,120.801l-8.064,-2.298l6.677,-5.072l1.387,7.37Z"/><path d="M436.543,293.555c113,5.931 174.303,3.461 217,-40.207c29.417,-30.087 37.298,-81.616 17.5,-113.293c-16.013,-25.62 -45.943,-24.475 -58.604,-22.662" style="fill:none;stroke:#000;stroke-width:2px;"/></g><path d="M106.538,432.032c-5.022,-1.328 -5.861,-7.392 -5.861,-7.392c-0.058,-0.436 0.249,-0.836 0.684,-0.894c0.435,-0.057 0.835,0.249 0.893,0.685c-0,-0 0.548,3.233 3.961,4.299l0.377,-5.534l-1.661,0c-0.39,0 -0.707,-0.316 -0.707,-0.706c0,-0.39 0.317,-0.707 0.707,-0.707l1.757,0l0.144,-2.102c-0.762,-0.527 -1.262,-1.408 -1.262,-2.404c0,-1.612 1.309,-2.92 2.921,-2.92c1.612,-0 2.921,1.308 2.921,2.92c-0,0.996 -0.5,1.876 -1.261,2.404l0.143,2.102l1.757,0c0.39,0 0.707,0.317 0.707,0.707c-0,0.39 -0.317,0.706 -0.707,0.706l-1.661,0l0.381,5.585c3.514,-1.005 3.954,-4.329 3.954,-4.329c0.046,-0.437 0.438,-0.754 0.875,-0.708c0.436,0.046 0.753,0.438 0.708,0.874c-0,0 -0.698,6.284 -5.927,7.475l-1.89,1.908l-1.953,-1.969Z" style="fill:#5fbc93;stroke:#222;stroke-width:1.25px;"/><path d="M403.538,432.075c-5.022,-1.327 -5.861,-7.392 -5.861,-7.392c-0.058,-0.435 0.249,-0.835 0.684,-0.893c0.435,-0.058 0.835,0.249 0.893,0.684c-0,0 0.548,3.234 3.961,4.299l0.377,-5.533l-1.661,-0c-0.39,-0 -0.707,-0.317 -0.707,-0.707c0,-0.39 0.317,-0.706 0.707,-0.706l1.757,-0l0.144,-2.103c-0.762,-0.527 -1.262,-1.407 -1.262,-2.403c0,-1.612 1.309,-2.921 2.921,-2.921c1.612,0 2.921,1.309 2.921,2.921c-0,0.996 -0.5,1.876 -1.261,2.403l0.143,2.103l1.757,-0c0.39,-0 0.707,0.316 0.707,0.706c-0,0.39 -0.317,0.707 -0.707,0.707l-1.661,-0l0.381,5.584c3.514,-1.005 3.954,-4.329 3.954,-4.329c0.046,-0.436 0.438,-0.753 0.875,-0.708c0.436,0.046 0.753,0.438 0.708,0.875c-0,-0 -0.698,6.284 -5.927,7.474l-1.89,1.909l-1.953,-1.97Z" style="fill:#5fbc93;stroke:#222;stroke-width:1.25px;"/><path d="M356.339,48.032c-5.022,-1.328 -5.862,-7.392 -5.862,-7.392c-0.057,-0.436 0.249,-0.836 0.684,-0.894c0.436,-0.057 0.836,0.249 0.893,0.685c0,-0 0.548,3.233 3.961,4.299l0.378,-5.534l-1.662,0c-0.39,0 -0.706,-0.316 -0.706,-0.706c-0,-0.39 0.316,-0.707 0.706,-0.707l1.758,0l0.143,-2.102c-0.762,-0.527 -1.261,-1.408 -1.261,-2.404c-0,-1.612 1.308,-2.92 2.92,-2.92c1.612,-0 2.921,1.308 2.921,2.92c0,0.996 -0.499,1.876 -1.261,2.404l0.143,2.102l1.758,0c0.39,0 0.706,0.317 0.706,0.707c0,0.39 -0.316,0.706 -0.706,0.706l-1.661,0l0.38,5.585c3.514,-1.005 3.955,-4.329 3.955,-4.329c0.046,-0.437 0.437,-0.754 0.874,-0.708c0.437,0.046 0.754,0.438 0.708,0.874c0,0 -0.698,6.284 -5.926,7.475l-1.891,1.908l-1.952,-1.969Z" style="fill:#5fbc93;stroke:#222;stroke-width:1.25px;"/><path d="M517.672,48.075c-5.022,-1.327 -5.861,-7.392 -5.861,-7.392c-0.058,-0.435 0.249,-0.835 0.684,-0.893c0.435,-0.058 0.835,0.249 0.893,0.684c-0,0 0.547,3.234 3.961,4.299l0.377,-5.533l-1.662,-0c-0.389,-0 -0.706,-0.317 -0.706,-0.707c0,-0.39 0.317,-0.706 0.706,-0.706l1.758,-0l0.144,-2.103c-0.762,-0.527 -1.262,-1.407 -1.262,-2.403c-0,-1.612 1.309,-2.921 2.921,-2.921c1.612,0 2.921,1.309 2.921,2.921c-0,0.996 -0.5,1.876 -1.262,2.403l0.144,2.103l1.757,-0c0.39,-0 0.706,0.316 0.706,0.706c0,0.39 -0.316,0.707 -0.706,0.707l-1.661,-0l0.38,5.584c3.515,-1.005 3.955,-4.329 3.955,-4.329c0.046,-0.436 0.438,-0.753 0.874,-0.708c0.437,0.046 0.754,0.438 0.708,0.875c0,-0 -0.697,6.284 -5.926,7.474l-1.89,1.909l-1.953,-1.97Z" style="fill:#5fbc93;stroke:#222;stroke-width:1.25px;"/><path d="M518.563,432.032c-5.022,-1.328 -5.862,-7.392 -5.862,-7.392c-0.057,-0.436 0.249,-0.836 0.685,-0.894c0.435,-0.057 0.835,0.249 0.893,0.685c-0,-0 0.547,3.233 3.96,4.299l0.378,-5.534l-1.662,0c-0.39,0 -0.706,-0.316 -0.706,-0.706c-0,-0.39 0.316,-0.707 0.706,-0.707l1.758,0l0.143,-2.102c-0.762,-0.527 -1.261,-1.408 -1.261,-2.404c-0,-1.612 1.308,-2.92 2.921,-2.92c1.612,-0 2.92,1.308 2.92,2.92c0,0.996 -0.499,1.876 -1.261,2.404l0.143,2.102l1.758,0c0.39,0 0.706,0.317 0.706,0.707c0,0.39 -0.316,0.706 -0.706,0.706l-1.661,0l0.38,5.585c3.514,-1.005 3.955,-4.329 3.955,-4.329c0.046,-0.437 0.438,-0.754 0.874,-0.708c0.437,0.046 0.754,0.438 0.708,0.874c0,0 -0.698,6.284 -5.926,7.475l-1.89,1.908l-1.953,-1.969Z" style="fill:#5fbc93;stroke:#222;stroke-width:1.25px;"/><rect x="78.809" y="62.738" width="15" height="15" style="fill:#969696;stroke:#000;stroke-width:1.5px;"/><rect x="78.809" y="86.738" width="15" height="15" style="fill:#ebebeb;stroke:#000;stroke-width:1.5px;"/><g transform="matrix(10,0,0,10,140.424,74.3216)"></g><text x="101.228px" y="74.322px" style="font-family:'Tahoma';font-size:10px;">H<tspan x="107.511px 112.29px 115.375px 120.432px 127.296px 132.075px 135.16px " y="74.322px 74.322px 74.322px 74.322px 74.322px 74.322px 74.322px ">ardware</tspan></text><g transform="matrix(10,0,0,10,136.889,98.3216)"></g><text x="101.228px" y="98.322px" style="font-family:'Tahoma';font-size:10px;">S<tspan x="106.349px 111.309px 114.022px 116.897px 123.761px 128.54px 131.625px " y="98.322px 98.322px 98.322px 98.322px 98.322px 98.322px 98.322px ">oftware</tspan></text><rect x="78.809" y="110.736" width="15" height="15" style="fill:#b9d2dc;stroke:#000;stroke-width:1.5px;"/><g transform="matrix(10,0,0,10,181.472,122.319)"></g><text x="101.228px" y="122.319px" style="font-family:'Tahoma';font-size:10px;">K<tspan x="106.359px 111.153px 115.663px 117.488px 119.303px 127.232px 132.025px 134.68px 140.216px 145.176px 153.104px 158.162px 163.121px 168.227px 173.021px 178.127px " y="122.319px 122.319px 122.319px 122.319px 122.319px 122.319px 122.319px 122.319px 122.319px 122.319px 122.319px 122.319px 122.319px 122.319px 122.319px 122.319px ">eylime Component</tspan></text><g transform="matrix(10,0,0,10,151.879,155.319)"></g><text x="101.228px" y="155.319px" style="font-family:'Tahoma';font-size:10px;">T<tspan x="105.67px 108.804px 113.91px 117.903px 120.778px 123.433px 128.959px 134.065px 138.209px 143.315px 148.275px " y="155.319px 155.319px 155.319px 155.319px 155.319px 155.319px 155.319px 155.319px 155.319px 155.319px 155.319px ">rust Anchor</tspan></text><path d="M84.391,159.319c-4.326,-1.143 -5.048,-6.367 -5.048,-6.367c-0.05,-0.374 0.214,-0.719 0.589,-0.769c0.375,-0.049 0.719,0.215 0.769,0.59c0,-0 0.472,2.785 3.411,3.702l0.325,-4.766l-1.431,0c-0.336,0 -0.608,-0.272 -0.608,-0.608c-0,-0.336 0.272,-0.609 0.608,-0.609l1.514,0l0.124,-1.81c-0.657,-0.454 -1.087,-1.212 -1.087,-2.07c0,-1.389 1.127,-2.516 2.516,-2.516c1.388,0 2.515,1.127 2.515,2.516c0,0.857 -0.43,1.615 -1.086,2.07l0.123,1.81l1.514,0c0.336,0 0.608,0.273 0.608,0.609c0,0.336 -0.272,0.608 -0.608,0.608l-1.431,0l0.328,4.81c3.027,-0.865 3.406,-3.728 3.406,-3.728c0.04,-0.376 0.377,-0.649 0.753,-0.61c0.376,0.04 0.649,0.377 0.61,0.753c-0,0 -0.601,5.412 -5.104,6.438l-1.628,1.643l-1.682,-1.696Z" style="fill:#5fbc93;stroke:#222;stroke-width:1px;"/></svg>